<svg width="25" height="25" viewBox="0 0 25 25" fill="none" xmlns="http://www.w3.org/2000/svg">
<path d="M19.7917 7.29166H5.20833C4.05774 7.29166 3.125 8.2244 3.125 9.37499V17.7083C3.125 18.8589 4.05774 19.7917 5.20833 19.7917H19.7917C20.9423 19.7917 21.875 18.8589 21.875 17.7083V9.37499C21.875 8.2244 20.9423 7.29166 19.7917 7.29166Z" stroke="#52B69A" stroke-width="2" stroke-linecap="round" stroke-linejoin="round"/>
<path d="M10.4167 12.5L10.6365 12.6104C11.2151 12.8997 11.8531 13.0504 12.5 13.0504C13.1469 13.0504 13.7849 12.8997 14.3635 12.6104L14.5833 12.5M9.375 6.24999C9.375 5.69746 9.59449 5.16755 9.98519 4.77685C10.3759 4.38615 10.9058 4.16666 11.4583 4.16666H13.5417C14.0942 4.16666 14.6241 4.38615 15.0148 4.77685C15.4055 5.16755 15.625 5.69746 15.625 6.24999V7.29166H9.375V6.24999Z" stroke="#52B69A" stroke-width="2" stroke-linecap="round" stroke-linejoin="round"/>
</svg>
