<svg width="50" height="50" viewBox="0 0 50 50" fill="none" xmlns="http://www.w3.org/2000/svg">
<path d="M41.9191 37.2852C40.998 35.1034 39.6613 33.1216 37.9835 31.4502C36.3108 29.774 34.3294 28.4375 32.1486 27.5146C32.129 27.5049 32.1095 27.5 32.09 27.4902C35.132 25.293 37.1095 21.7139 37.1095 17.6758C37.1095 10.9863 31.6896 5.56641 25.0001 5.56641C18.3107 5.56641 12.8907 10.9863 12.8907 17.6758C12.8907 21.7139 14.8683 25.293 17.9103 27.4951C17.8907 27.5049 17.8712 27.5098 17.8517 27.5195C15.6642 28.4424 13.7013 29.7656 12.0167 31.4551C10.3405 33.1278 9.00405 35.1092 8.08118 37.29C7.17455 39.4251 6.68558 41.7141 6.64075 44.0332C6.63944 44.0853 6.64858 44.1372 6.66763 44.1857C6.68668 44.2342 6.71524 44.2784 6.75165 44.3158C6.78805 44.3531 6.83155 44.3827 6.8796 44.403C6.92764 44.4232 6.97924 44.4336 7.03137 44.4336H9.96106C10.1759 44.4336 10.3468 44.2627 10.3517 44.0527C10.4493 40.2832 11.963 36.7529 14.6388 34.0772C17.4073 31.3086 21.0841 29.7852 25.0001 29.7852C28.9161 29.7852 32.5929 31.3086 35.3615 34.0772C38.0372 36.7529 39.5509 40.2832 39.6486 44.0527C39.6534 44.2676 39.8243 44.4336 40.0392 44.4336H42.9689C43.021 44.4336 43.0726 44.4232 43.1207 44.403C43.1687 44.3827 43.2122 44.3531 43.2486 44.3158C43.285 44.2784 43.3136 44.2342 43.3326 44.1857C43.3517 44.1372 43.3608 44.0853 43.3595 44.0332C43.3107 41.6992 42.8273 39.4287 41.9191 37.2852ZM25.0001 26.0742C22.7589 26.0742 20.6495 25.2002 19.0626 23.6133C17.4757 22.0264 16.6017 19.917 16.6017 17.6758C16.6017 15.4346 17.4757 13.3252 19.0626 11.7383C20.6495 10.1514 22.7589 9.27734 25.0001 9.27734C27.2413 9.27734 29.3507 10.1514 30.9376 11.7383C32.5245 13.3252 33.3986 15.4346 33.3986 17.6758C33.3986 19.917 32.5245 22.0264 30.9376 23.6133C29.3507 25.2002 27.2413 26.0742 25.0001 26.0742Z" fill="#52B69A"/>
</svg>
