<svg width="50" height="50" viewBox="0 0 50 50" fill="none" xmlns="http://www.w3.org/2000/svg">
<path d="M40.625 22.6562H37.3047V11.7188C37.3047 8.2666 34.5068 5.46875 31.0547 5.46875H18.9453C15.4932 5.46875 12.6953 8.2666 12.6953 11.7188V22.6562H9.375C8.51074 22.6562 7.8125 23.3545 7.8125 24.2188V42.9688C7.8125 43.833 8.51074 44.5312 9.375 44.5312H40.625C41.4893 44.5312 42.1875 43.833 42.1875 42.9688V24.2188C42.1875 23.3545 41.4893 22.6562 40.625 22.6562ZM16.2109 11.7188C16.2109 10.21 17.4365 8.98438 18.9453 8.98438H31.0547C32.5635 8.98438 33.7891 10.21 33.7891 11.7188V22.6562H16.2109V11.7188ZM38.6719 41.0156H11.3281V26.1719H38.6719V41.0156ZM23.6328 34.2285V36.8164C23.6328 37.0312 23.8086 37.207 24.0234 37.207H25.9766C26.1914 37.207 26.3672 37.0312 26.3672 36.8164V34.2285C26.7702 33.9391 27.0711 33.5293 27.2264 33.0581C27.3817 32.5868 27.3835 32.0785 27.2315 31.6061C27.0795 31.1338 26.7816 30.7219 26.3806 30.4297C25.9796 30.1374 25.4962 29.98 25 29.98C24.5038 29.98 24.0204 30.1374 23.6194 30.4297C23.2184 30.7219 22.9205 31.1338 22.7685 31.6061C22.6165 32.0785 22.6183 32.5868 22.7736 33.0581C22.9289 33.5293 23.2298 33.9391 23.6328 34.2285Z" fill="#52B69A"/>
</svg>
