<svg width="50" height="50" viewBox="0 0 50 50" fill="none" xmlns="http://www.w3.org/2000/svg">
<path d="M7.8125 15.625H10.9375V35.1562H7.8125V15.625ZM14.0625 15.625H17.1875V35.1562H14.0625V15.625ZM20.3125 15.625H23.4375V35.1562H20.3125V15.625ZM26.5625 15.625H29.6875V35.1562H26.5625V15.625ZM32.8125 15.625H35.9375V35.1562H32.8125V15.625Z" fill="#0C1E7F"/>
<path d="M42.1874 17.1875V11.6787C42.1813 11.0627 41.9312 10.4742 41.4918 10.0423C41.0524 9.61042 40.4597 9.37045 39.8437 9.375H3.90478C3.28872 9.37045 2.69599 9.61042 2.25662 10.0423C1.81725 10.4742 1.5671 11.0627 1.56104 11.6787V39.1025C1.5671 39.7186 1.81725 40.3071 2.25662 40.739C2.69599 41.1708 3.28872 41.4108 3.90478 41.4062H39.8437C40.4597 41.4108 41.0524 41.1708 41.4918 40.739C41.9312 40.3071 42.1813 39.7186 42.1874 39.1025V33.5938H48.4374V17.1875H42.1874ZM45.3124 30.4688H39.0624V38.2812H4.68603V12.5H39.0624V20.3125H45.3124V30.4688Z" fill="#0C1E7F"/>
</svg>
