<svg width="60" height="60" viewBox="0 0 60 60" fill="none" xmlns="http://www.w3.org/2000/svg">
<g clip-path="url(#clip0_13_266)">
<path d="M-2.62268e-06 30C-3.31826e-06 22.0435 3.1607 14.4129 8.78679 8.7868C14.4129 3.16071 22.0435 3.31826e-06 30 2.62268e-06C37.9565 1.9271e-06 45.5871 3.16071 51.2132 8.7868C56.8393 14.4129 60 22.0435 60 30C60 37.9565 56.8393 45.5871 51.2132 51.2132C45.5871 56.8393 37.9565 60 30 60C22.0435 60 14.4129 56.8393 8.78679 51.2132C3.1607 45.5871 -1.9271e-06 37.9565 -2.62268e-06 30V30ZM28.125 43.125C28.125 43.6223 28.3225 44.0992 28.6742 44.4508C29.0258 44.8025 29.5027 45 30 45C30.4973 45 30.9742 44.8025 31.3258 44.4508C31.6775 44.0992 31.875 43.6223 31.875 43.125L31.875 21.4013L39.9225 29.4525C40.2746 29.8046 40.7521 30.0024 41.25 30.0024C41.7479 30.0024 42.2254 29.8046 42.5775 29.4525C42.9296 29.1004 43.1274 28.6229 43.1274 28.125C43.1274 27.6271 42.9296 27.1496 42.5775 26.7975L31.3275 15.5475C31.1533 15.3729 30.9464 15.2344 30.7186 15.1398C30.4908 15.0453 30.2466 14.9967 30 14.9967C29.7534 14.9967 29.5092 15.0453 29.2814 15.1398C29.0536 15.2344 28.8467 15.3729 28.6725 15.5475L17.4225 26.7975C17.0704 27.1496 16.8726 27.6271 16.8726 28.125C16.8726 28.6229 17.0704 29.1004 17.4225 29.4525C17.7746 29.8046 18.2521 30.0024 18.75 30.0024C19.2479 30.0024 19.7254 29.8046 20.0775 29.4525L28.125 21.4013L28.125 43.125Z" fill="#0C1E7F"/>
</g>
<defs>
<clipPath id="clip0_13_266">
<rect width="60" height="60" fill="white" transform="translate(60 60) rotate(180)"/>
</clipPath>
</defs>
</svg>
