<svg width="93" height="93" viewBox="0 0 93 93" fill="none" xmlns="http://www.w3.org/2000/svg">
<path d="M23.25 63.9375C23.25 62.3959 23.8624 60.9175 24.9524 59.8274C26.0425 58.7374 27.5209 58.125 29.0625 58.125C30.6041 58.125 32.0825 58.7374 33.1726 59.8274C34.2626 60.9175 34.875 62.3959 34.875 63.9375V69.75C34.875 71.2916 34.2626 72.77 33.1726 73.8601C32.0825 74.9501 30.6041 75.5625 29.0625 75.5625C27.5209 75.5625 26.0425 74.9501 24.9524 73.8601C23.8624 72.77 23.25 71.2916 23.25 69.75V63.9375ZM58.125 40.6875C58.125 39.1459 58.7374 37.6675 59.8274 36.5774C60.9175 35.4874 62.3959 34.875 63.9375 34.875C65.4791 34.875 66.9575 35.4874 68.0476 36.5774C69.1376 37.6675 69.75 39.1459 69.75 40.6875V69.75C69.75 71.2916 69.1376 72.77 68.0476 73.8601C66.9575 74.9501 65.4791 75.5625 63.9375 75.5625C62.3959 75.5625 60.9175 74.9501 59.8274 73.8601C58.7374 72.77 58.125 71.2916 58.125 69.75V40.6875ZM40.6875 52.3125C40.6875 50.7709 41.2999 49.2925 42.3899 48.2024C43.48 47.1124 44.9584 46.5 46.5 46.5C48.0416 46.5 49.52 47.1124 50.6101 48.2024C51.7001 49.2925 52.3125 50.7709 52.3125 52.3125V69.75C52.3125 71.2916 51.7001 72.77 50.6101 73.8601C49.52 74.9501 48.0416 75.5625 46.5 75.5625C44.9584 75.5625 43.48 74.9501 42.3899 73.8601C41.2999 72.77 40.6875 71.2916 40.6875 69.75V52.3125Z" fill="black"/>
<path d="M23.25 8.71875H17.4375C14.3544 8.71875 11.3975 9.94352 9.21738 12.1236C7.03727 14.3037 5.8125 17.2606 5.8125 20.3438V81.375C5.8125 84.4581 7.03727 87.415 9.21738 89.5951C11.3975 91.7752 14.3544 93 17.4375 93H75.5625C78.6456 93 81.6025 91.7752 83.7826 89.5951C85.9627 87.415 87.1875 84.4581 87.1875 81.375V20.3438C87.1875 17.2606 85.9627 14.3037 83.7826 12.1236C81.6025 9.94352 78.6456 8.71875 75.5625 8.71875H69.75V14.5312H75.5625C77.1041 14.5312 78.5825 15.1436 79.6726 16.2337C80.7626 17.3237 81.375 18.8022 81.375 20.3438V81.375C81.375 82.9166 80.7626 84.395 79.6726 85.4851C78.5825 86.5751 77.1041 87.1875 75.5625 87.1875H17.4375C15.8959 87.1875 14.4175 86.5751 13.3274 85.4851C12.2374 84.395 11.625 82.9166 11.625 81.375V20.3438C11.625 18.8022 12.2374 17.3237 13.3274 16.2337C14.4175 15.1436 15.8959 14.5312 17.4375 14.5312H23.25V8.71875Z" fill="black"/>
<path d="M55.2188 5.8125C55.9895 5.8125 56.7288 6.11869 57.2738 6.66372C57.8188 7.20875 58.125 7.94796 58.125 8.71875V14.5312C58.125 15.302 57.8188 16.0413 57.2738 16.5863C56.7288 17.1313 55.9895 17.4375 55.2188 17.4375H37.7812C37.0105 17.4375 36.2712 17.1313 35.7262 16.5863C35.1812 16.0413 34.875 15.302 34.875 14.5312V8.71875C34.875 7.94796 35.1812 7.20875 35.7262 6.66372C36.2712 6.11869 37.0105 5.8125 37.7812 5.8125H55.2188ZM37.7812 0C35.4689 0 33.2512 0.91858 31.6162 2.55366C29.9811 4.18875 29.0625 6.40639 29.0625 8.71875V14.5312C29.0625 16.8436 29.9811 19.0613 31.6162 20.6963C33.2512 22.3314 35.4689 23.25 37.7812 23.25H55.2188C57.5311 23.25 59.7488 22.3314 61.3838 20.6963C63.0189 19.0613 63.9375 16.8436 63.9375 14.5312V8.71875C63.9375 6.40639 63.0189 4.18875 61.3838 2.55366C59.7488 0.91858 57.5311 0 55.2188 0L37.7812 0Z" fill="black"/>
</svg>
