<svg width="45" height="45" viewBox="0 0 45 45" fill="none" xmlns="http://www.w3.org/2000/svg">
<path d="M5.45459 5.53977C5.45459 4.07053 6.04124 2.66147 7.08547 1.62256C8.12971 0.583653 9.546 0 11.0228 0L33.2955 0C34.7723 0 36.1886 0.583653 37.2328 1.62256C38.277 2.66147 38.8637 4.07053 38.8637 5.53977V38.7784C38.8637 40.2477 38.277 41.6567 37.2328 42.6956C36.1886 43.7345 34.7723 44.3182 33.2955 44.3182H11.0228C9.546 44.3182 8.12971 43.7345 7.08547 42.6956C6.04124 41.6567 5.45459 40.2477 5.45459 38.7784V5.53977ZM11.0228 2.76989C10.2844 2.76989 9.57624 3.06171 9.05412 3.58117C8.532 4.10062 8.23868 4.80515 8.23868 5.53977V16.6193H36.0796V5.53977C36.0796 4.80515 35.7863 4.10062 35.2641 3.58117C34.742 3.06171 34.0339 2.76989 33.2955 2.76989H11.0228ZM36.0796 19.3892H16.591V24.929H36.0796V19.3892ZM36.0796 27.6989H16.591V33.2386H36.0796V27.6989ZM36.0796 36.0085H16.591V41.5483H33.2955C34.0339 41.5483 34.742 41.2565 35.2641 40.737C35.7863 40.2176 36.0796 39.513 36.0796 38.7784V36.0085ZM13.8069 41.5483V36.0085H8.23868V38.7784C8.23868 39.513 8.532 40.2176 9.05412 40.737C9.57624 41.2565 10.2844 41.5483 11.0228 41.5483H13.8069ZM8.23868 33.2386H13.8069V27.6989H8.23868V33.2386ZM8.23868 24.929H13.8069V19.3892H8.23868V24.929Z" fill="#0C1E7F"/>
</svg>
