<svg width="61" height="61" viewBox="0 0 61 61" fill="none" xmlns="http://www.w3.org/2000/svg">
<path d="M50.4877 21.5152C50.8454 20.26 50.9229 18.9416 50.7148 17.6532C50.5067 16.3647 50.018 15.1377 49.2834 14.059C48.5487 12.9803 47.586 12.0761 46.4633 11.4106C45.3406 10.745 44.0854 10.3342 42.7865 10.2073C42.2652 8.71185 41.292 7.41539 40.0015 6.49738C38.711 5.57937 37.1671 5.08522 35.5834 5.08333C33.7015 5.0897 31.8894 5.79643 30.5 7.06583C29.1107 5.79643 27.2986 5.0897 25.4167 5.08333C22.11 5.08333 19.2913 7.19545 18.2365 10.2048C16.9353 10.3285 15.6772 10.7371 14.5515 11.4015C13.4258 12.0659 12.4602 12.9699 11.723 14.0493C10.9859 15.1287 10.4953 16.3571 10.286 17.6474C10.0768 18.9376 10.1541 20.2581 10.5124 21.5152C8.88071 22.3833 7.51448 23.6769 6.55864 25.2588C5.60281 26.8407 5.09302 28.6518 5.08337 30.5C5.08337 33.2323 6.17121 35.8019 8.06221 37.698C7.77287 38.661 7.6256 39.6611 7.62504 40.6667C7.62504 45.6407 11.2139 49.7912 16.0278 50.6656C16.7345 52.2275 17.8757 53.5531 19.3151 54.4842C20.7546 55.4153 22.4315 55.9125 24.1459 55.9167C26.6342 55.9167 28.8835 54.8822 30.5 53.225C31.3251 54.0761 32.3127 54.7529 33.4041 55.2153C34.4956 55.6776 35.6688 55.9161 36.8542 55.9167C38.5655 55.9135 40.2398 55.4182 41.6773 54.4899C43.1149 53.5615 44.2552 52.2393 44.9621 50.6808C46.3803 50.4308 47.7292 49.8828 48.92 49.0731C50.1107 48.2633 51.1162 47.2102 51.87 45.9832C52.6237 44.7563 53.1086 43.3834 53.2927 41.9552C53.4768 40.527 53.3559 39.076 52.9379 37.698C53.8829 36.7527 54.6324 35.6304 55.1435 34.3954C55.6546 33.1603 55.9173 31.8366 55.9167 30.5C55.9071 28.6518 55.3973 26.8407 54.4414 25.2588C53.4856 23.6769 52.1194 22.3833 50.4877 21.5152ZM24.1459 50.8333C22.3387 50.8333 20.7655 49.5523 20.4096 47.7884L19.8708 45.75H17.7917C14.9882 45.75 12.7084 43.4701 12.7084 40.6667C12.7084 39.772 12.9244 38.9332 13.3514 38.1733L14.5104 36.0993L12.5177 34.803C11.7979 34.339 11.2057 33.7021 10.795 32.9505C10.3844 32.1989 10.1684 31.3565 10.1667 30.5C10.1667 28.0168 12.0043 25.864 14.4418 25.4878L18.7448 24.827L16.0532 21.4059C15.5739 20.788 15.2959 20.0377 15.2569 19.2566C15.2178 18.4755 15.4196 17.7013 15.835 17.0386C16.2503 16.376 16.8591 15.8569 17.5791 15.5515C18.2991 15.2462 19.0955 15.1693 19.8606 15.3313L22.875 15.7761V12.7083C22.875 12.0342 23.1428 11.3878 23.6195 10.9111C24.0961 10.4344 24.7426 10.1667 25.4167 10.1667C26.0908 10.1667 26.7373 10.4344 27.2139 10.9111C27.6906 11.3878 27.9584 12.0342 27.9584 12.7083V47.0208C27.9584 49.1228 26.2478 50.8333 24.1459 50.8333ZM48.4823 34.8005L46.4897 36.0967L47.6487 38.1707C48.0757 38.9332 48.2917 39.772 48.2917 40.6667C48.2917 43.4701 46.0118 45.75 43.0813 45.75H41.0022L40.5905 47.7884C40.4128 48.6482 39.9442 49.4204 39.2636 49.9751C38.5831 50.5297 37.7321 50.8328 36.8542 50.8333C34.7522 50.8333 33.0417 49.1228 33.0417 47.0208V12.7083C33.0417 11.3053 34.1804 10.1667 35.5834 10.1667C36.9864 10.1667 38.125 11.3053 38.125 12.8354V15.9032L41.1395 15.3313C41.9046 15.1693 42.701 15.2462 43.4209 15.5515C44.1409 15.8569 44.7498 16.376 45.1651 17.0386C45.5805 17.7013 45.7823 18.4755 45.7432 19.2566C45.7042 20.0377 45.4262 20.788 44.9469 21.4059L42.2553 24.8295L46.5583 25.4904C47.749 25.6832 48.8326 26.2927 49.6156 27.2103C50.3986 28.1278 50.8302 29.2937 50.8334 30.5C50.8334 32.236 49.954 33.8423 48.4823 34.8005Z" fill="#0C1E7F"/>
</svg>
