<svg width="40" height="40" viewBox="0 0 40 40" fill="none" xmlns="http://www.w3.org/2000/svg">
<path d="M0 8C0 3.58172 3.58172 0 8 0H40V40H8C3.58172 40 0 36.4183 0 32V8Z" fill="#7047EB"/>
<path d="M17.3669 15.5455V25H15.6542V17.212H15.5988L13.3875 18.6246V17.055L15.7373 15.5455H17.3669ZM23.1282 25.1293C22.4419 25.1293 21.8325 25.0138 21.3001 24.783C20.7708 24.5522 20.3553 24.2367 20.0537 23.8366C19.7551 23.4335 19.6074 22.9764 19.6105 22.4656C19.6074 22.0685 19.6936 21.7038 19.869 21.3714C20.0444 21.0391 20.2814 20.7621 20.5799 20.5405C20.8816 20.3158 21.217 20.1727 21.5863 20.1112V20.0465C21.1001 19.9388 20.7061 19.6911 20.4045 19.3033C20.106 18.9124 19.9583 18.4615 19.9613 17.9506C19.9583 17.4644 20.0937 17.0304 20.3676 16.6488C20.6415 16.2672 21.017 15.9671 21.494 15.7486C21.971 15.527 22.5158 15.4162 23.1282 15.4162C23.7345 15.4162 24.2747 15.527 24.7486 15.7486C25.2257 15.9671 25.6011 16.2672 25.875 16.6488C26.152 17.0304 26.2905 17.4644 26.2905 17.9506C26.2905 18.4615 26.1382 18.9124 25.8335 19.3033C25.5319 19.6911 25.1426 19.9388 24.6655 20.0465V20.1112C25.0348 20.1727 25.3672 20.3158 25.6627 20.5405C25.9612 20.7621 26.1982 21.0391 26.3736 21.3714C26.5521 21.7038 26.6414 22.0685 26.6414 22.4656C26.6414 22.9764 26.4906 23.4335 26.189 23.8366C25.8874 24.2367 25.4719 24.5522 24.9425 24.783C24.4162 25.0138 23.8115 25.1293 23.1282 25.1293ZM23.1282 23.8089C23.4822 23.8089 23.7899 23.7489 24.0515 23.6289C24.3131 23.5058 24.5163 23.3335 24.6609 23.1119C24.8056 22.8903 24.8794 22.6348 24.8825 22.3455C24.8794 22.0439 24.8009 21.7777 24.6471 21.5469C24.4963 21.313 24.2885 21.1299 24.0238 20.9975C23.7622 20.8652 23.4637 20.799 23.1282 20.799C22.7897 20.799 22.4881 20.8652 22.2234 20.9975C21.9587 21.1299 21.7495 21.313 21.5956 21.5469C21.4448 21.7777 21.3709 22.0439 21.374 22.3455C21.3709 22.6348 21.4417 22.8903 21.5863 23.1119C21.731 23.3304 21.9341 23.5012 22.1957 23.6243C22.4604 23.7474 22.7712 23.8089 23.1282 23.8089ZM23.1282 19.5018C23.4175 19.5018 23.673 19.4433 23.8946 19.3263C24.1192 19.2094 24.2962 19.0463 24.4255 18.837C24.5547 18.6277 24.6209 18.3861 24.624 18.1122C24.6209 17.8414 24.5563 17.6044 24.4301 17.4013C24.3039 17.1951 24.1285 17.0366 23.9038 16.9258C23.6791 16.8119 23.4206 16.755 23.1282 16.755C22.8297 16.755 22.5666 16.8119 22.3388 16.9258C22.1142 17.0366 21.9387 17.1951 21.8125 17.4013C21.6894 17.6044 21.6294 17.8414 21.6325 18.1122C21.6294 18.3861 21.691 18.6277 21.8172 18.837C21.9464 19.0432 22.1234 19.2063 22.3481 19.3263C22.5758 19.4433 22.8359 19.5018 23.1282 19.5018Z" fill="white"/>
</svg>
