<svg width="40" height="40" viewBox="0 0 40 40" fill="none" xmlns="http://www.w3.org/2000/svg">
<path d="M0 0H40V32C40 36.4183 36.4183 40 32 40H0V0Z" fill="#F8F7FA"/>
<path d="M12.6073 25V23.7628L15.8896 20.5451C16.2035 20.2281 16.4651 19.9465 16.6744 19.7003C16.8837 19.4541 17.0406 19.2156 17.1453 18.9847C17.2499 18.7539 17.3022 18.5077 17.3022 18.2461C17.3022 17.9476 17.2345 17.6921 17.0991 17.4798C16.9637 17.2643 16.7775 17.0981 16.5405 16.9812C16.3035 16.8642 16.0343 16.8058 15.7326 16.8058C15.4218 16.8058 15.1494 16.8704 14.9155 16.9996C14.6816 17.1258 14.5 17.3059 14.3708 17.5398C14.2446 17.7737 14.1815 18.0522 14.1815 18.3754H12.5519C12.5519 17.7752 12.6888 17.2536 12.9628 16.8104C13.2367 16.3672 13.6137 16.024 14.0938 15.7809C14.577 15.5378 15.131 15.4162 15.7557 15.4162C16.3897 15.4162 16.9468 15.5347 17.4269 15.7717C17.907 16.0086 18.2794 16.3333 18.5441 16.7457C18.8118 17.1581 18.9457 17.629 18.9457 18.1584C18.9457 18.5123 18.878 18.8601 18.7426 19.2017C18.6072 19.5433 18.3687 19.9219 18.027 20.3374C17.6885 20.7528 17.213 21.256 16.6005 21.8469L14.9709 23.5043V23.5689H19.0888V25H12.6073ZM24.0423 25.1293C23.356 25.1293 22.7466 25.0138 22.2142 24.783C21.6848 24.5522 21.2693 24.2367 20.9677 23.8366C20.6692 23.4335 20.5215 22.9764 20.5245 22.4656C20.5215 22.0685 20.6076 21.7038 20.7831 21.3714C20.9585 21.0391 21.1955 20.7621 21.494 20.5405C21.7956 20.3158 22.1311 20.1727 22.5004 20.1112V20.0465C22.0141 19.9388 21.6202 19.6911 21.3186 19.3033C21.02 18.9124 20.8723 18.4615 20.8754 17.9506C20.8723 17.4644 21.0077 17.0304 21.2816 16.6488C21.5556 16.2672 21.931 15.9671 22.4081 15.7486C22.8851 15.527 23.4299 15.4162 24.0423 15.4162C24.6486 15.4162 25.1887 15.527 25.6627 15.7486C26.1397 15.9671 26.5152 16.2672 26.7891 16.6488C27.0661 17.0304 27.2046 17.4644 27.2046 17.9506C27.2046 18.4615 27.0522 18.9124 26.7476 19.3033C26.4459 19.6911 26.0566 19.9388 25.5796 20.0465V20.1112C25.9489 20.1727 26.2813 20.3158 26.5767 20.5405C26.8753 20.7621 27.1123 21.0391 27.2877 21.3714C27.4662 21.7038 27.5554 22.0685 27.5554 22.4656C27.5554 22.9764 27.4046 23.4335 27.103 23.8366C26.8014 24.2367 26.3859 24.5522 25.8566 24.783C25.3303 25.0138 24.7255 25.1293 24.0423 25.1293ZM24.0423 23.8089C24.3962 23.8089 24.704 23.7489 24.9656 23.6289C25.2272 23.5058 25.4303 23.3335 25.575 23.1119C25.7196 22.8903 25.7935 22.6348 25.7966 22.3455C25.7935 22.0439 25.715 21.7777 25.5611 21.5469C25.4103 21.313 25.2026 21.1299 24.9379 20.9975C24.6763 20.8652 24.3778 20.799 24.0423 20.799C23.7038 20.799 23.4022 20.8652 23.1375 20.9975C22.8728 21.1299 22.6635 21.313 22.5096 21.5469C22.3588 21.7777 22.285 22.0439 22.288 22.3455C22.285 22.6348 22.3558 22.8903 22.5004 23.1119C22.645 23.3304 22.8482 23.5012 23.1098 23.6243C23.3745 23.7474 23.6853 23.8089 24.0423 23.8089ZM24.0423 19.5018C24.3316 19.5018 24.587 19.4433 24.8086 19.3263C25.0333 19.2094 25.2103 19.0463 25.3395 18.837C25.4688 18.6277 25.535 18.3861 25.538 18.1122C25.535 17.8414 25.4703 17.6044 25.3441 17.4013C25.218 17.1951 25.0425 17.0366 24.8179 16.9258C24.5932 16.8119 24.3347 16.755 24.0423 16.755C23.7438 16.755 23.4806 16.8119 23.2529 16.9258C23.0282 17.0366 22.8528 17.1951 22.7266 17.4013C22.6035 17.6044 22.5435 17.8414 22.5466 18.1122C22.5435 18.3861 22.605 18.6277 22.7312 18.837C22.8605 19.0432 23.0374 19.2063 23.2621 19.3263C23.4899 19.4433 23.7499 19.5018 24.0423 19.5018Z" fill="#7047EB"/>
</svg>
