<svg width="40" height="40" viewBox="0 0 40 40" fill="none" xmlns="http://www.w3.org/2000/svg">
<path d="M0 0H32C36.4183 0 40 3.58172 40 8V40H0V0Z" fill="#F8F7FA"/>
<path d="M13.68 25V23.7628L16.9624 20.5451C17.2763 20.2281 17.5379 19.9465 17.7472 19.7003C17.9564 19.4541 18.1134 19.2156 18.218 18.9847C18.3227 18.7539 18.375 18.5077 18.375 18.2461C18.375 17.9476 18.3073 17.6921 18.1719 17.4798C18.0365 17.2643 17.8503 17.0981 17.6133 16.9812C17.3763 16.8642 17.107 16.8058 16.8054 16.8058C16.4946 16.8058 16.2222 16.8704 15.9883 16.9996C15.7544 17.1258 15.5728 17.3059 15.4435 17.5398C15.3174 17.7737 15.2543 18.0522 15.2543 18.3754H13.6246C13.6246 17.7752 13.7616 17.2536 14.0355 16.8104C14.3094 16.3672 14.6864 16.024 15.1665 15.7809C15.6497 15.5378 16.2037 15.4162 16.8285 15.4162C17.4625 15.4162 18.0195 15.5347 18.4996 15.7717C18.9798 16.0086 19.3522 16.3333 19.6168 16.7457C19.8846 17.1581 20.0185 17.629 20.0185 18.1584C20.0185 18.5123 19.9508 18.8601 19.8153 19.2017C19.6799 19.5433 19.4414 19.9219 19.0998 20.3374C18.7612 20.7528 18.2857 21.256 17.6733 21.8469L16.0437 23.5043V23.5689H20.1616V25H13.68ZM25.5998 15.5455V25H23.8871V17.212H23.8317L21.6204 18.6246V17.055L23.9702 15.5455H25.5998Z" fill="#7047EB"/>
</svg>
