<svg width="40" height="40" viewBox="0 0 40 40" fill="none" xmlns="http://www.w3.org/2000/svg">
<path d="M0 0H40V40H8C3.58172 40 0 36.4183 0 32V0Z" fill="#F8F7FA"/>
<path d="M20.0052 25.1293C19.3189 25.1293 18.7095 25.0138 18.1771 24.783C17.6477 24.5522 17.2322 24.2367 16.9306 23.8366C16.6321 23.4335 16.4844 22.9764 16.4874 22.4656C16.4844 22.0685 16.5705 21.7038 16.746 21.3714C16.9214 21.0391 17.1584 20.7621 17.4569 20.5405C17.7585 20.3158 18.094 20.1727 18.4633 20.1112V20.0465C17.977 19.9388 17.5831 19.6911 17.2815 19.3033C16.9829 18.9124 16.8352 18.4615 16.8383 17.9506C16.8352 17.4644 16.9706 17.0304 17.2445 16.6488C17.5185 16.2672 17.8939 15.9671 18.371 15.7486C18.848 15.527 19.3927 15.4162 20.0052 15.4162C20.6115 15.4162 21.1516 15.527 21.6256 15.7486C22.1026 15.9671 22.4781 16.2672 22.752 16.6488C23.029 17.0304 23.1675 17.4644 23.1675 17.9506C23.1675 18.4615 23.0151 18.9124 22.7104 19.3033C22.4088 19.6911 22.0195 19.9388 21.5425 20.0465V20.1112C21.9118 20.1727 22.2442 20.3158 22.5396 20.5405C22.8382 20.7621 23.0752 21.0391 23.2506 21.3714C23.4291 21.7038 23.5183 22.0685 23.5183 22.4656C23.5183 22.9764 23.3675 23.4335 23.0659 23.8366C22.7643 24.2367 22.3488 24.5522 21.8195 24.783C21.2932 25.0138 20.6884 25.1293 20.0052 25.1293ZM20.0052 23.8089C20.3591 23.8089 20.6669 23.7489 20.9285 23.6289C21.1901 23.5058 21.3932 23.3335 21.5379 23.1119C21.6825 22.8903 21.7564 22.6348 21.7595 22.3455C21.7564 22.0439 21.6779 21.7777 21.524 21.5469C21.3732 21.313 21.1655 21.1299 20.9008 20.9975C20.6392 20.8652 20.3407 20.799 20.0052 20.799C19.6667 20.799 19.365 20.8652 19.1004 20.9975C18.8357 21.1299 18.6264 21.313 18.4725 21.5469C18.3217 21.7777 18.2479 22.0439 18.2509 22.3455C18.2479 22.6348 18.3186 22.8903 18.4633 23.1119C18.6079 23.3304 18.8111 23.5012 19.0727 23.6243C19.3373 23.7474 19.6482 23.8089 20.0052 23.8089ZM20.0052 19.5018C20.2945 19.5018 20.5499 19.4433 20.7715 19.3263C20.9962 19.2094 21.1732 19.0463 21.3024 18.837C21.4317 18.6277 21.4979 18.3861 21.5009 18.1122C21.4979 17.8414 21.4332 17.6044 21.307 17.4013C21.1809 17.1951 21.0054 17.0366 20.7808 16.9258C20.5561 16.8119 20.2976 16.755 20.0052 16.755C19.7067 16.755 19.4435 16.8119 19.2158 16.9258C18.9911 17.0366 18.8157 17.1951 18.6895 17.4013C18.5664 17.6044 18.5064 17.8414 18.5095 18.1122C18.5064 18.3861 18.5679 18.6277 18.6941 18.837C18.8234 19.0432 19.0003 19.2063 19.225 19.3263C19.4528 19.4433 19.7128 19.5018 20.0052 19.5018Z" fill="#7047EB"/>
</svg>
