<svg width="40" height="40" viewBox="0 0 40 40" fill="none" xmlns="http://www.w3.org/2000/svg">
<path d="M0 8C0 3.58172 3.58172 0 8 0H40V40H8C3.58172 40 0 36.4183 0 32V8Z" fill="#F8F7FA"/>
<path d="M12.766 25V23.7628L16.0483 20.5451C16.3622 20.2281 16.6238 19.9465 16.8331 19.7003C17.0424 19.4541 17.1993 19.2156 17.304 18.9847C17.4086 18.7539 17.4609 18.5077 17.4609 18.2461C17.4609 17.9476 17.3932 17.6921 17.2578 17.4798C17.1224 17.2643 16.9362 17.0981 16.6992 16.9812C16.4622 16.8642 16.1929 16.8058 15.8913 16.8058C15.5805 16.8058 15.3081 16.8704 15.0742 16.9996C14.8403 17.1258 14.6587 17.3059 14.5295 17.5398C14.4033 17.7737 14.3402 18.0522 14.3402 18.3754H12.7106C12.7106 17.7752 12.8475 17.2536 13.1214 16.8104C13.3954 16.3672 13.7724 16.024 14.2525 15.7809C14.7357 15.5378 15.2897 15.4162 15.9144 15.4162C16.5484 15.4162 17.1055 15.5347 17.5856 15.7717C18.0657 16.0086 18.4381 16.3333 18.7028 16.7457C18.9705 17.1581 19.1044 17.629 19.1044 18.1584C19.1044 18.5123 19.0367 18.8601 18.9013 19.2017C18.7659 19.5433 18.5273 19.9219 18.1857 20.3374C17.8472 20.7528 17.3717 21.256 16.7592 21.8469L15.1296 23.5043V23.5689H19.2475V25H12.766ZM20.8402 25V23.7628L24.1225 20.5451C24.4364 20.2281 24.698 19.9465 24.9073 19.7003C25.1166 19.4541 25.2736 19.2156 25.3782 18.9847C25.4828 18.7539 25.5352 18.5077 25.5352 18.2461C25.5352 17.9476 25.4674 17.6921 25.332 17.4798C25.1966 17.2643 25.0104 17.0981 24.7734 16.9812C24.5365 16.8642 24.2672 16.8058 23.9656 16.8058C23.6547 16.8058 23.3823 16.8704 23.1484 16.9996C22.9145 17.1258 22.733 17.3059 22.6037 17.5398C22.4775 17.7737 22.4144 18.0522 22.4144 18.3754H20.7848C20.7848 17.7752 20.9218 17.2536 21.1957 16.8104C21.4696 16.3672 21.8466 16.024 22.3267 15.7809C22.8099 15.5378 23.3639 15.4162 23.9886 15.4162C24.6226 15.4162 25.1797 15.5347 25.6598 15.7717C26.1399 16.0086 26.5123 16.3333 26.777 16.7457C27.0447 17.1581 27.1786 17.629 27.1786 18.1584C27.1786 18.5123 27.1109 18.8601 26.9755 19.2017C26.8401 19.5433 26.6016 19.9219 26.2599 20.3374C25.9214 20.7528 25.4459 21.256 24.8335 21.8469L23.2038 23.5043V23.5689H27.3217V25H20.8402Z" fill="#7047EB"/>
</svg>
