<svg width="29" height="29" viewBox="0 0 29 29" fill="none" xmlns="http://www.w3.org/2000/svg">
<path d="M10.0968 6.04167H8.47042L6.04167 15.7083H7.28383L7.8445 13.4427H10.643L11.1892 15.7083H12.4724L10.0968 6.04167ZM8.00763 12.4724L9.2365 7.18958H9.29088L10.4799 12.4736L8.00763 12.4724ZM13.5793 15.7083V6.04167H14.7876V15.7083H13.5793ZM13.8052 16.9167H4.83333V4.83333H16.9167V10.6092C18.3468 9.68563 20.0767 9.34571 21.75 9.65942V7.25H19.3333V4.83333C19.3314 4.19298 19.0762 3.5794 18.6234 3.1266C18.1706 2.67381 17.557 2.41858 16.9167 2.41667H14.5V0H12.0833V2.41667H9.66667V0H7.25V2.41667H4.83333C4.19298 2.41858 3.5794 2.67381 3.1266 3.1266C2.67381 3.5794 2.41858 4.19298 2.41667 4.83333V7.25H0V9.66667H2.41667V12.0833H0V14.5H2.41667V16.9167C2.41858 17.557 2.67381 18.1706 3.1266 18.6234C3.5794 19.0762 4.19298 19.3314 4.83333 19.3333H7.25V21.75H9.66667V19.3333H12.0833V21.75H14.5V19.343C14.1168 18.5855 13.8811 17.7621 13.8052 16.9167ZM16.3125 16.3125C16.3125 15.4761 16.5605 14.6584 17.0252 13.9629C17.49 13.2674 18.1505 12.7254 18.9232 12.4053C19.696 12.0852 20.5464 12.0014 21.3667 12.1646C22.1871 12.3278 22.9407 12.7306 23.5321 13.322C24.1236 13.9135 24.5264 14.6671 24.6896 15.4874C24.8528 16.3078 24.769 17.1582 24.4489 17.9309C24.1288 18.7037 23.5867 19.3642 22.8913 19.8289C22.1958 20.2936 21.3781 20.5417 20.5417 20.5417C19.9862 20.5418 19.4362 20.4325 18.923 20.2201C18.4099 20.0076 17.9436 19.6961 17.5508 19.3033C17.1581 18.9106 16.8466 18.4443 16.6341 17.9311C16.4216 17.4179 16.3123 16.8679 16.3125 16.3125V16.3125ZM20.5417 22.9583C17.719 22.9583 12.0833 24.3757 12.0833 27.1875V29H29V27.1875C29 24.3745 23.3643 22.9583 20.5417 22.9583Z" fill="white"/>
</svg>
