<svg width="32" height="32" viewBox="0 0 32 32" fill="none" xmlns="http://www.w3.org/2000/svg">
<path d="M28 2.66663H3.99998C3.29274 2.66663 2.61446 2.94758 2.11436 3.44767C1.61426 3.94777 1.33331 4.62605 1.33331 5.33329V21.3333C1.33331 22.0405 1.61426 22.7188 2.11436 23.2189C2.61446 23.719 3.29274 24 3.99998 24H13.3333V26.6666H10.6666V29.3333H21.3333V26.6666H18.6666V24H28C28.7072 24 29.3855 23.719 29.8856 23.2189C30.3857 22.7188 30.6666 22.0405 30.6666 21.3333V5.33329C30.6666 4.62605 30.3857 3.94777 29.8856 3.44767C29.3855 2.94758 28.7072 2.66663 28 2.66663ZM28 21.3333H3.99998V5.33329H28V21.3333Z" fill="white"/>
<path d="M14.68 17.32H17.3467V19.9867H14.68V17.32ZM14.68 6.65332H17.3467V14.6533H14.68V6.65332Z" fill="white"/>
</svg>
