<svg width="25" height="25" viewBox="0 0 25 25" fill="none" xmlns="http://www.w3.org/2000/svg">
<path d="M12.1777 1.23877C12.7881 0.628906 13.7744 0.628906 14.3848 1.23877C14.9951 1.84912 14.9951 2.83838 14.3848 3.44873L13.1494 4.64355H20.3125C22.9004 4.64355 25 6.74316 25 9.33105V10.8936C25 11.8018 24.3018 12.4561 23.4375 12.4561C22.5732 12.4561 21.875 11.8018 21.875 10.8936V9.33105C21.875 8.51074 21.1768 7.76855 20.3125 7.76855H13.1494L14.3848 9.05273C14.9951 9.66308 14.9951 10.6494 14.3848 11.2598C13.7744 11.8701 12.7881 11.8701 12.1777 11.2598L8.27148 7.35352C7.66113 6.74316 7.66113 5.75684 8.27148 5.14648L12.1777 1.23877V1.23877ZM16.7285 17.6465C17.3389 18.2568 17.3389 19.2432 16.7285 19.8535L12.8223 23.7598C12.2119 24.3701 11.2256 24.3701 10.6152 23.7598C10.0049 23.1494 10.0049 22.1631 10.6152 21.5527L11.8506 20.3125H4.6875C3.82471 20.3125 3.125 21.0107 3.125 21.875V23.4375C3.125 24.3018 2.42529 25 1.5625 25C0.699707 25 0 24.3018 0 23.4375V21.875C0 19.2432 2.09863 17.1875 4.6875 17.1875H11.8506L10.6152 15.9473C10.0049 15.3369 10.0049 14.3506 10.6152 13.7402C11.2256 13.1299 12.2119 13.1299 12.8223 13.7402L16.7285 17.6465V17.6465ZM25 18.75C25 20.4736 23.5986 21.875 21.875 21.875C20.1514 21.875 18.75 20.4736 18.75 18.75C18.75 17.0264 20.1514 15.625 21.875 15.625C23.5986 15.625 25 17.0264 25 18.75ZM6.25 6.25C6.25 7.97363 4.85107 9.375 3.125 9.375C1.39893 9.375 0 7.97363 0 6.25C0 4.52393 1.39893 3.125 3.125 3.125C4.85107 3.125 6.25 4.52393 6.25 6.25Z" fill="#52B69A"/>
</svg>
