<svg width="25" height="25" viewBox="0 0 25 25" fill="none" xmlns="http://www.w3.org/2000/svg">
<path d="M7.6625 3.49125C8.51497 2.84565 9.55565 2.49743 10.625 2.5C10.9943 2.49172 11.3597 2.57673 11.6875 2.74715C12.0152 2.91758 12.2947 3.16791 12.5 3.475C12.7053 3.16791 12.9848 2.91758 13.3125 2.74715C13.6403 2.57673 14.0057 2.49172 14.375 2.5C15.4443 2.49743 16.485 2.84565 17.3375 3.49125C17.9937 4.00125 18.5 4.7075 18.6787 5.56125C19.0887 5.5925 19.4637 5.7625 19.7787 6.01875C20.2562 6.40625 20.6038 6.9875 20.8225 7.6025C21.165 8.55875 21.2575 9.7775 20.9025 10.815C20.9925 10.8575 21.0813 10.9075 21.1675 10.965C21.5113 11.1938 21.7725 11.5213 21.965 11.9075C22.3438 12.6638 22.5 13.7188 22.5 15C22.5 16.4263 21.9563 17.3838 21.2663 17.975C20.8847 18.3022 20.4344 18.5393 19.9487 18.6688C19.8237 19.3663 19.4738 20.1738 18.925 20.8588C18.2125 21.7525 17.1075 22.5 15.625 22.5C14.45 22.5 13.515 21.85 12.9075 21.2125C12.7623 21.0603 12.6262 20.8996 12.5 20.7312C12.3738 20.8996 12.2378 21.0603 12.0925 21.2125C11.485 21.85 10.5512 22.5 9.375 22.5C7.8925 22.5 6.78875 21.7525 6.075 20.8588C5.5622 20.222 5.21097 19.4706 5.05125 18.6688C4.5656 18.5393 4.11531 18.3022 3.73375 17.975C3.04375 17.3838 2.5 16.425 2.5 15C2.5 13.7188 2.6575 12.6625 3.035 11.9075C3.21391 11.5287 3.48886 11.2033 3.8325 10.9638C3.91692 10.9079 4.00552 10.8586 4.0975 10.8163C3.7425 9.77625 3.835 8.55875 4.1775 7.6025C4.39625 6.9875 4.74375 6.40625 5.22125 6.01875C5.53625 5.7625 5.91125 5.59375 6.32125 5.56125C6.50125 4.7075 7.0075 4.00125 7.66375 3.49125H7.6625ZM11.875 5.625V5.6125L11.8725 5.55C11.8541 5.22413 11.7893 4.90256 11.68 4.595C11.6022 4.36283 11.4697 4.15276 11.2937 3.9825C11.1091 3.82173 10.8695 3.73844 10.625 3.75C9.83368 3.74729 9.06306 4.0027 8.43 4.4775C7.85 4.92875 7.5 5.54 7.5 6.25C7.49992 6.34898 7.47634 6.44653 7.43119 6.53461C7.38605 6.62269 7.32062 6.6988 7.24031 6.75665C7.16 6.8145 7.0671 6.85245 6.96925 6.86738C6.8714 6.88231 6.77141 6.87378 6.6775 6.8425C6.4425 6.765 6.2325 6.80875 6.00875 6.98875C5.76375 7.18875 5.525 7.54375 5.35375 8.0225C5.005 9 5.04125 10.1838 5.52 10.9038C5.58837 11.0063 5.6249 11.1268 5.625 11.25H6.5625C7.30842 11.25 8.02379 11.5463 8.55124 12.0738C9.07868 12.6012 9.375 13.3166 9.375 14.0625V14.4813C9.79201 14.6287 10.1435 14.9188 10.3673 15.3003C10.5911 15.6818 10.6728 16.1302 10.598 16.5661C10.5232 17.002 10.2967 17.3975 9.95854 17.6826C9.62037 17.9677 9.1923 18.124 8.75 18.124C8.3077 18.124 7.87963 17.9677 7.54146 17.6826C7.20329 17.3975 6.9768 17.002 6.902 16.5661C6.82721 16.1302 6.90893 15.6818 7.13273 15.3003C7.35653 14.9188 7.70799 14.6287 8.125 14.4813V14.0625C8.125 13.2 7.425 12.5 6.5625 12.5H4.375C4.30028 12.4999 4.22618 12.4863 4.15625 12.46L4.1525 12.4675C3.905 12.9613 3.75 13.7813 3.75 15C3.75 16.0738 4.14375 16.6788 4.5475 17.025C4.98125 17.3975 5.4625 17.5 5.625 17.5C5.79076 17.5 5.94973 17.5658 6.06694 17.6831C6.18415 17.8003 6.25 17.9592 6.25 18.125C6.25 18.585 6.5 19.3888 7.05 20.0788C7.58625 20.7475 8.3575 21.25 9.375 21.25C10.075 21.25 10.7025 20.8588 11.1875 20.35C11.4262 20.1 11.6125 19.8413 11.7338 19.6288C11.7889 19.5345 11.8362 19.4358 11.875 19.3338V9.375H10.5187C10.3713 9.79201 10.0812 10.1435 9.6997 10.3673C9.31819 10.5911 8.86985 10.6728 8.43392 10.598C7.99798 10.5232 7.60252 10.2967 7.31743 9.95854C7.03235 9.62037 6.87598 9.19231 6.87598 8.75C6.87598 8.3077 7.03235 7.87963 7.31743 7.54146C7.60252 7.2033 7.99798 6.9768 8.43392 6.902C8.86985 6.82721 9.31819 6.90893 9.6997 7.13273C10.0812 7.35653 10.3713 7.70799 10.5187 8.125H11.875V5.625ZM13.125 18.1238V19.3325C13.1638 19.4346 13.2111 19.5333 13.2662 19.6275C13.3887 19.84 13.5737 20.0988 13.8112 20.3488C14.2975 20.8575 14.9262 21.2488 15.625 21.2488C16.6425 21.2488 17.4137 20.7463 17.95 20.0775C18.5 19.3875 18.75 18.5838 18.75 18.1238C18.75 17.958 18.8158 17.799 18.9331 17.6818C19.0503 17.5646 19.2092 17.4988 19.375 17.4988C19.5375 17.4988 20.0187 17.3963 20.4525 17.0238C20.8562 16.6775 21.25 16.0725 21.25 14.9988C21.25 13.78 21.0937 12.9613 20.8475 12.4663C20.7651 12.2819 20.6358 12.1225 20.4725 12.0038C20.3318 11.9138 20.1669 11.8689 20 11.875C19.8869 11.8749 19.776 11.8442 19.6791 11.7861C19.5821 11.728 19.5027 11.6447 19.4493 11.545C19.396 11.4453 19.3706 11.3331 19.376 11.2201C19.3814 11.1072 19.4174 10.9979 19.48 10.9038C19.96 10.1838 19.995 9 19.6463 8.0225C19.475 7.54375 19.2362 7.1875 18.9912 6.98875C18.7675 6.80875 18.5575 6.76375 18.3225 6.8425C18.2286 6.87378 18.1286 6.88231 18.0308 6.86738C17.9329 6.85245 17.84 6.8145 17.7597 6.75665C17.6794 6.6988 17.614 6.62269 17.5688 6.53461C17.5237 6.44653 17.5001 6.34898 17.5 6.25C17.5 5.54 17.15 4.92875 16.5688 4.4775C15.936 4.00296 15.1659 3.74756 14.375 3.75C14.1305 3.73844 13.8909 3.82173 13.7063 3.9825C13.5297 4.15256 13.3968 4.36266 13.3187 4.595C13.1997 4.92151 13.1343 5.26511 13.125 5.6125V16.875H14.0625C14.925 16.875 15.625 16.175 15.625 15.3125V13.0188C15.208 12.8713 14.8565 12.5812 14.6327 12.1997C14.4089 11.8182 14.3272 11.3699 14.402 10.9339C14.4768 10.498 14.7033 10.1025 15.0415 9.81744C15.3796 9.53235 15.8077 9.37598 16.25 9.37598C16.6923 9.37598 17.1204 9.53235 17.4585 9.81744C17.7967 10.1025 18.0232 10.498 18.098 10.9339C18.1728 11.3699 18.0911 11.8182 17.8673 12.1997C17.6435 12.5812 17.292 12.8713 16.875 13.0188V15.3125C16.875 16.0584 16.5787 16.7738 16.0512 17.3012C15.5238 17.8287 14.8084 18.125 14.0625 18.125H13.125V18.1238ZM8.125 8.75C8.125 8.91576 8.19085 9.07473 8.30806 9.19194C8.42527 9.30915 8.58424 9.375 8.75 9.375C8.91576 9.375 9.07473 9.30915 9.19194 9.19194C9.30915 9.07473 9.375 8.91576 9.375 8.75C9.375 8.58424 9.30915 8.42527 9.19194 8.30806C9.07473 8.19085 8.91576 8.125 8.75 8.125C8.58424 8.125 8.42527 8.19085 8.30806 8.30806C8.19085 8.42527 8.125 8.58424 8.125 8.75ZM16.25 11.875C16.4158 11.875 16.5747 11.8092 16.6919 11.6919C16.8092 11.5747 16.875 11.4158 16.875 11.25C16.875 11.0842 16.8092 10.9253 16.6919 10.8081C16.5747 10.6908 16.4158 10.625 16.25 10.625C16.0842 10.625 15.9253 10.6908 15.8081 10.8081C15.6908 10.9253 15.625 11.0842 15.625 11.25C15.625 11.4158 15.6908 11.5747 15.8081 11.6919C15.9253 11.8092 16.0842 11.875 16.25 11.875ZM8.75 15.625C8.58424 15.625 8.42527 15.6908 8.30806 15.8081C8.19085 15.9253 8.125 16.0842 8.125 16.25C8.125 16.4158 8.19085 16.5747 8.30806 16.6919C8.42527 16.8092 8.58424 16.875 8.75 16.875C8.91576 16.875 9.07473 16.8092 9.19194 16.6919C9.30915 16.5747 9.375 16.4158 9.375 16.25C9.375 16.0842 9.30915 15.9253 9.19194 15.8081C9.07473 15.6908 8.91576 15.625 8.75 15.625Z" fill="#52B69A"/>
</svg>
