<svg width="704" height="224" viewBox="0 0 704 224" fill="none" xmlns="http://www.w3.org/2000/svg">
<path d="M0 159.636C46.9333 84.5454 93.8667 9.45454 140.8 9.45454C187.733 9.45454 234.667 73.8182 281.6 73.8182C328.533 73.8182 375.467 0.872726 422.4 0.872726C469.333 0.872726 516.267 125.667 563.2 154.273C610.133 182.879 657.067 190.03 704 197.182V224C657.067 224 610.133 224 563.2 224C516.267 224 469.333 224 422.4 224C375.467 224 328.533 224 281.6 224C234.667 224 187.733 224 140.8 224C93.8667 224 46.9333 224 0 224V159.636Z" fill="#3366FF" fill-opacity="0.6"/>
<path d="M0 159.636C46.9333 84.5454 93.8667 9.45454 140.8 9.45454C187.733 9.45454 234.667 73.8182 281.6 73.8182C328.533 73.8182 375.467 0.872726 422.4 0.872726C469.333 0.872726 516.267 125.667 563.2 154.273C610.133 182.879 657.067 190.03 704 197.182" stroke="#3366FF"/>
</svg>
