<svg width="158" height="178" viewBox="0 0 158 178" fill="none" xmlns="http://www.w3.org/2000/svg">
<path d="M157.133 89C157.133 73.5115 153.523 58.2958 146.665 44.8824C139.808 31.4689 129.944 20.3303 118.066 12.586C106.189 4.84173 92.715 0.764709 78.9998 0.764709C65.2845 0.764709 51.8109 4.84173 39.9331 12.586L78.9998 89H157.133Z" fill="#3366FF" stroke="white"/>
<path d="M39.9331 12.586C21.9871 24.2867 8.89205 43.559 3.52874 66.163C-1.83458 88.7671 0.973175 112.851 11.3343 133.118L78.9998 89L39.9331 12.586Z" fill="#009379" stroke="white"/>
<path d="M11.3345 133.118C16.4648 143.152 23.2951 151.948 31.4354 159.002C39.5757 166.056 48.8665 171.23 58.7775 174.229C68.6885 177.228 79.0255 177.993 89.1984 176.48C99.3712 174.968 109.181 171.208 118.067 165.414L78.9999 89L11.3345 133.118Z" fill="#FF6250" stroke="white"/>
<path d="M118.067 165.414C129.944 157.67 139.808 146.531 146.665 133.118C153.523 119.704 157.133 104.489 157.133 89H79L118.067 165.414Z" fill="#FFDF90" stroke="white"/>
</svg>
