<svg width="102" height="102" viewBox="0 0 102 102" fill="none" xmlns="http://www.w3.org/2000/svg">
<path d="M101 50.9999C101 39.6728 97.154 28.6813 90.0916 19.8254C83.0293 10.9695 73.1692 4.77405 62.1261 2.25353C51.083 -0.266989 39.5112 1.03683 29.3059 5.95148C19.1005 10.8661 10.8663 19.1004 5.9516 29.3057L23.971 37.9834C26.9198 31.8602 31.8603 26.9197 37.9835 23.9709C44.1068 21.0221 51.0498 20.2398 57.6757 21.7521C64.3016 23.2644 70.2176 26.9817 74.455 32.2952C78.6924 37.6088 81 44.2037 81 50.9999H101Z" fill="#3366FF" stroke="white"/>
<path d="M5.95159 29.3058C0.478579 40.6706 -0.496645 53.6841 3.2214 65.7377C6.93945 77.7913 15.076 87.9942 26 94.3012L36 76.9807C29.4456 73.1965 24.5637 67.0748 22.3329 59.8426C20.102 52.6105 20.6872 44.8024 23.971 37.9835L5.95159 29.3058Z" fill="#009379" stroke="white"/>
<path d="M26.0001 94.3011C33.601 98.6896 42.2232 101 51.0001 101C59.7769 101 68.3991 98.6896 76.0001 94.3011C83.601 89.9127 89.9129 83.6008 94.3013 75.9999C98.6897 68.3989 101 59.7767 101 50.9999H81.0001C81.0001 56.266 79.6139 61.4393 76.9808 65.9999C74.3478 70.5605 70.5606 74.3476 66.0001 76.9806C61.4395 79.6137 56.2662 80.9999 51.0001 80.9999C45.734 80.9999 40.5606 79.6137 36.0001 76.9806L26.0001 94.3011Z" fill="#FF6250" stroke="white"/>
</svg>
