<svg width="455" height="118" viewBox="0 0 455 118" fill="none" xmlns="http://www.w3.org/2000/svg">
<path d="M1 88.8334C14.7576 45.0834 28.5152 1.33337 42.2727 1.33337C56.0303 1.33337 69.7879 1.33337 83.5455 1.33337C97.303 1.33337 111.061 1.33337 124.818 1.33337C138.576 1.33337 152.333 88.8334 166.091 88.8334C179.848 88.8334 193.606 88.8334 207.364 88.8334C221.121 88.8334 234.879 88.8334 248.636 88.8334C262.394 88.8334 276.152 1.33337 289.909 1.33337C303.667 1.33337 317.424 1.33337 331.182 1.33337C344.939 1.33337 358.697 1.33337 372.455 1.33337C386.212 1.33337 399.97 88.8334 413.727 88.8334C427.485 88.8334 441.242 88.8334 455 88.8334V118C441.242 118 427.485 118 413.727 118C399.97 118 386.212 118 372.455 118C358.697 118 344.939 118 331.182 118C317.424 118 303.667 118 289.909 118C276.152 118 262.394 118 248.636 118C234.879 118 221.121 118 207.364 118C193.606 118 179.848 118 166.091 118C152.333 118 138.576 118 124.818 118C111.061 118 97.303 118 83.5455 118C69.7879 118 56.0303 118 42.2727 118C28.5152 118 14.7576 118 1 118V88.8334Z" fill="#009379" fill-opacity="0.5"/>
<path d="M1 88.8334C14.7576 45.0834 28.5152 1.33337 42.2727 1.33337C56.0303 1.33337 69.7879 1.33337 83.5455 1.33337C97.303 1.33337 111.061 1.33337 124.818 1.33337C138.576 1.33337 152.333 88.8334 166.091 88.8334C179.848 88.8334 193.606 88.8334 207.364 88.8334C221.121 88.8334 234.879 88.8334 248.636 88.8334C262.394 88.8334 276.152 1.33337 289.909 1.33337C303.667 1.33337 317.424 1.33337 331.182 1.33337C344.939 1.33337 358.697 1.33337 372.455 1.33337C386.212 1.33337 399.97 88.8334 413.727 88.8334C427.485 88.8334 441.242 88.8334 455 88.8334" stroke="#009379"/>
</svg>
