<svg width="416" height="147" viewBox="0 0 416 147" fill="none" xmlns="http://www.w3.org/2000/svg">
<path d="M0.838867 1.16663C13.3856 1.16663 25.9323 1.16663 38.479 1.16663C51.0257 1.16663 63.5724 49.7777 76.1191 59.5C88.6658 69.2222 101.212 65.3333 113.759 74.0833C126.306 82.8333 138.853 112 151.399 112C163.946 112 176.493 76.0277 189.039 65.3333C201.586 54.6389 214.133 53.1805 226.68 47.8333C239.226 42.4861 251.773 33.25 264.32 33.25C276.866 33.25 289.413 52.6944 301.96 59.5C314.506 66.3055 327.053 65.3333 339.6 74.0833C352.147 82.8333 364.693 112 377.24 112C389.787 112 402.333 103.25 414.88 94.5V147C402.333 147 389.787 147 377.24 147C364.693 147 352.147 147 339.6 147C327.053 147 314.506 147 301.96 147C289.413 147 276.866 147 264.32 147C251.773 147 239.226 147 226.68 147C214.133 147 201.586 147 189.039 147C176.493 147 163.946 147 151.399 147C138.853 147 126.306 147 113.759 147C101.212 147 88.6658 147 76.1191 147C63.5724 147 51.0257 147 38.479 147C25.9323 147 13.3856 147 0.838867 147V1.16663Z" fill="#3366FF" fill-opacity="0.5"/>
<path d="M0.838867 1.16663C13.3856 1.16663 25.9323 1.16663 38.479 1.16663C51.0257 1.16663 63.5724 49.7777 76.1191 59.5C88.6658 69.2222 101.212 65.3333 113.759 74.0833C126.306 82.8333 138.853 112 151.399 112C163.946 112 176.493 76.0277 189.039 65.3333C201.586 54.6389 214.133 53.1805 226.68 47.8333C239.226 42.4861 251.773 33.25 264.32 33.25C276.866 33.25 289.413 52.6944 301.96 59.5C314.506 66.3055 327.053 65.3333 339.6 74.0833C352.147 82.8333 364.693 112 377.24 112C389.787 112 402.333 103.25 414.88 94.5" stroke="#3366FF"/>
</svg>
