<svg width="416" height="126" viewBox="0 0 416 126" fill="none" xmlns="http://www.w3.org/2000/svg">
<path d="M0.95874 90.3C13.5013 45.675 26.0438 1.05005 38.5864 1.05005C51.129 1.05005 63.6715 9.55005 76.2141 24C88.7566 38.45 101.299 82.65 113.842 87.75C126.384 92.85 138.927 95.4 151.469 95.4C164.012 95.4 176.554 63.95 189.097 54.6C201.64 45.25 214.182 48.2251 226.725 39.3001C239.267 30.3751 251.81 1.05005 264.352 1.05005C276.895 1.05005 289.437 9.55005 301.98 24C314.523 38.45 327.065 82.65 339.608 87.75C352.15 92.85 364.693 95.4 377.235 95.4C389.778 95.4 402.32 75 414.863 54.6V126C402.32 126 389.778 126 377.235 126C364.693 126 352.15 126 339.608 126C327.065 126 314.523 126 301.98 126C289.437 126 276.895 126 264.352 126C251.81 126 239.267 126 226.725 126C214.182 126 201.64 126 189.097 126C176.554 126 164.012 126 151.469 126C138.927 126 126.384 126 113.842 126C101.299 126 88.7566 126 76.2141 126C63.6715 126 51.129 126 38.5864 126C26.0438 126 13.5013 126 0.95874 126V90.3Z" fill="#009379" fill-opacity="0.5"/>
<path d="M0.95874 90.3C13.5013 45.675 26.0438 1.05005 38.5864 1.05005C51.129 1.05005 63.6715 9.55005 76.2141 24C88.7566 38.45 101.299 82.65 113.842 87.75C126.384 92.85 138.927 95.4 151.469 95.4C164.012 95.4 176.554 63.95 189.097 54.6C201.64 45.25 214.182 48.2251 226.725 39.3001C239.267 30.3751 251.81 1.05005 264.352 1.05005C276.895 1.05005 289.437 9.55005 301.98 24C314.523 38.45 327.065 82.65 339.608 87.75C352.15 92.85 364.693 95.4 377.235 95.4C389.778 95.4 402.32 75 414.863 54.6" stroke="#009379"/>
</svg>
