<svg width="380" height="145" viewBox="0 0 380 145" fill="none" xmlns="http://www.w3.org/2000/svg">
<path d="M0.399902 124.953C25.7066 111.685 51.0132 98.4169 76.3199 80.3725C101.627 62.328 126.933 16.6862 152.24 16.6862C177.547 16.6862 202.853 77.825 228.16 77.825C253.467 77.825 278.773 0.764648 304.08 0.764648C329.387 0.764648 354.693 72.4117 380 144.059C354.693 144.059 329.387 144.059 304.08 144.059C278.773 144.059 253.467 144.059 228.16 144.059C202.853 144.059 177.547 144.059 152.24 144.059C126.933 144.059 101.627 144.059 76.3199 144.059C51.0132 144.059 25.7066 144.059 0.399902 144.059V124.953Z" fill="#3366FF" fill-opacity="0.6"/>
<path d="M0.399902 124.953C25.7066 111.685 51.0132 98.4169 76.3199 80.3725C101.627 62.328 126.933 16.6862 152.24 16.6862C177.547 16.6862 202.853 77.825 228.16 77.825C253.467 77.825 278.773 0.764648 304.08 0.764648C329.387 0.764648 354.693 72.4117 380 144.059" stroke="#3366FF"/>
</svg>
