<svg width="950" height="109" viewBox="0 0 950 109" fill="none" xmlns="http://www.w3.org/2000/svg">
<path d="M0.133301 93.4823C63.4577 83.6457 126.782 73.8091 190.107 60.4313C253.431 47.0536 316.756 13.2157 380.08 13.2157C443.404 13.2157 506.729 58.5427 570.053 58.5427C633.378 58.5427 696.702 1.41174 760.027 1.41174C823.351 1.41174 886.676 54.5294 950 107.647C886.676 107.647 823.351 107.647 760.027 107.647C696.702 107.647 633.378 107.647 570.053 107.647C506.729 107.647 443.404 107.647 380.08 107.647C316.756 107.647 253.431 107.647 190.107 107.647C126.782 107.647 63.4577 107.647 0.133301 107.647V93.4823Z" fill="#3366FF" fill-opacity="0.6"/>
<path d="M0.133301 93.4823C63.4577 83.6457 126.782 73.8091 190.107 60.4313C253.431 47.0536 316.756 13.2157 380.08 13.2157C443.404 13.2157 506.729 58.5427 570.053 58.5427C633.378 58.5427 696.702 1.41174 760.027 1.41174C823.351 1.41174 886.676 54.5294 950 107.647" stroke="#3366FF"/>
</svg>
