<svg width="417" height="144" viewBox="0 0 417 144" fill="none" xmlns="http://www.w3.org/2000/svg">
<path d="M1.07434 102.908C13.6432 51.965 26.2121 1.02161 38.7809 1.02161C51.3498 1.02161 63.9186 10.7251 76.4875 27.2211C89.0563 43.717 101.625 94.1752 114.194 99.9973C126.763 105.819 139.332 108.73 151.901 108.73C164.469 108.73 177.038 72.8275 189.607 62.1537C202.176 51.4798 214.745 54.876 227.314 44.6874C239.883 34.4987 252.451 1.02161 265.02 1.02161C277.589 1.02161 290.158 10.7251 302.727 27.2211C315.296 43.717 327.865 94.1752 340.433 99.9973C353.002 105.819 365.571 108.73 378.14 108.73C390.709 108.73 403.278 85.4421 415.846 62.1537V143.663C403.278 143.663 390.709 143.663 378.14 143.663C365.571 143.663 353.002 143.663 340.433 143.663C327.865 143.663 315.296 143.663 302.727 143.663C290.158 143.663 277.589 143.663 265.02 143.663C252.451 143.663 239.883 143.663 227.314 143.663C214.745 143.663 202.176 143.663 189.607 143.663C177.038 143.663 164.469 143.663 151.901 143.663C139.332 143.663 126.763 143.663 114.194 143.663C101.625 143.663 89.0563 143.663 76.4875 143.663C63.9186 143.663 51.3498 143.663 38.7809 143.663C26.2121 143.663 13.6432 143.663 1.07434 143.663V102.908Z" fill="#009379" fill-opacity="0.5"/>
<path d="M1.07434 102.908C13.6432 51.965 26.2121 1.02161 38.7809 1.02161C51.3498 1.02161 63.9186 10.7251 76.4875 27.2211C89.0563 43.717 101.625 94.1752 114.194 99.9973C126.763 105.819 139.332 108.73 151.901 108.73C164.469 108.73 177.038 72.8275 189.607 62.1537C202.176 51.4798 214.745 54.876 227.314 44.6874C239.883 34.4987 252.451 1.02161 265.02 1.02161C277.589 1.02161 290.158 10.7251 302.727 27.2211C315.296 43.717 327.865 94.1752 340.433 99.9973C353.002 105.819 365.571 108.73 378.14 108.73C390.709 108.73 403.278 85.4421 415.846 62.1537" stroke="#009379"/>
</svg>
