<svg width="415" height="118" viewBox="0 0 415 118" fill="none" xmlns="http://www.w3.org/2000/svg">
<path d="M0.838867 88.8334C13.3856 45.0834 25.9323 1.33337 38.479 1.33337C51.0257 1.33337 63.5724 1.33337 76.1191 1.33337C88.6658 1.33337 101.212 1.33337 113.759 1.33337C126.306 1.33337 138.853 88.8334 151.399 88.8334C163.946 88.8334 176.493 88.8334 189.039 88.8334C201.586 88.8334 214.133 88.8334 226.68 88.8334C239.226 88.8334 251.773 1.33337 264.32 1.33337C276.866 1.33337 289.413 1.33337 301.96 1.33337C314.506 1.33337 327.053 1.33337 339.6 1.33337C352.147 1.33337 364.693 88.8334 377.24 88.8334C389.787 88.8334 402.333 88.8334 414.88 88.8334V118C402.333 118 389.787 118 377.24 118C364.693 118 352.147 118 339.6 118C327.053 118 314.506 118 301.96 118C289.413 118 276.866 118 264.32 118C251.773 118 239.226 118 226.68 118C214.133 118 201.586 118 189.039 118C176.493 118 163.946 118 151.399 118C138.853 118 126.306 118 113.759 118C101.212 118 88.6658 118 76.1191 118C63.5724 118 51.0257 118 38.479 118C25.9323 118 13.3856 118 0.838867 118V88.8334Z" fill="#009379" fill-opacity="0.5"/>
<path d="M0.838867 88.8334C13.3856 45.0834 25.9323 1.33337 38.479 1.33337C51.0257 1.33337 63.5724 1.33337 76.1191 1.33337C88.6658 1.33337 101.212 1.33337 113.759 1.33337C126.306 1.33337 138.853 88.8334 151.399 88.8334C163.946 88.8334 176.493 88.8334 189.039 88.8334C201.586 88.8334 214.133 88.8334 226.68 88.8334C239.226 88.8334 251.773 1.33337 264.32 1.33337C276.866 1.33337 289.413 1.33337 301.96 1.33337C314.506 1.33337 327.053 1.33337 339.6 1.33337C352.147 1.33337 364.693 88.8334 377.24 88.8334C389.787 88.8334 402.333 88.8334 414.88 88.8334" stroke="#009379"/>
</svg>
