<svg width="455" height="103" viewBox="0 0 455 103" fill="none" xmlns="http://www.w3.org/2000/svg">
<path d="M1 1C14.7273 39.25 28.4545 77.5 42.1818 77.5C55.9091 77.5 69.6364 77.5 83.3636 77.5C97.0909 77.5 110.818 1 124.545 1C138.273 1 152 1 165.727 1C179.455 1 193.182 1 206.909 1C220.636 1 234.364 39.25 248.091 52C261.818 64.75 275.545 77.5 289.273 77.5C303 77.5 316.727 77.5 330.455 77.5C344.182 77.5 357.909 77.5 371.636 77.5C385.364 77.5 399.091 64.75 412.818 52C426.545 39.25 440.273 20.125 454 1V103C440.273 103 426.545 103 412.818 103C399.091 103 385.364 103 371.636 103C357.909 103 344.182 103 330.455 103C316.727 103 303 103 289.273 103C275.545 103 261.818 103 248.091 103C234.364 103 220.636 103 206.909 103C193.182 103 179.455 103 165.727 103C152 103 138.273 103 124.545 103C110.818 103 97.0909 103 83.3636 103C69.6364 103 55.9091 103 42.1818 103C28.4545 103 14.7273 103 1 103V1Z" fill="#3366FF" fill-opacity="0.5"/>
<path d="M1 1C14.7273 39.25 28.4545 77.5 42.1818 77.5C55.9091 77.5 69.6364 77.5 83.3636 77.5C97.0909 77.5 110.818 1 124.545 1C138.273 1 152 1 165.727 1C179.455 1 193.182 1 206.909 1C220.636 1 234.364 39.25 248.091 52C261.818 64.75 275.545 77.5 289.273 77.5C303 77.5 316.727 77.5 330.455 77.5C344.182 77.5 357.909 77.5 371.636 77.5C385.364 77.5 399.091 64.75 412.818 52C426.545 39.25 440.273 20.125 454 1" stroke="#3366FF"/>
</svg>
