<svg width="416" height="118" viewBox="0 0 416 118" fill="none" xmlns="http://www.w3.org/2000/svg">
<path d="M1.07434 88.5525C13.6432 44.8867 26.2121 1.22095 38.7809 1.22095C51.3498 1.22095 63.9186 1.22095 76.4875 1.22095C89.0563 1.22095 101.625 1.22095 114.194 1.22095C126.763 1.22095 139.332 88.5525 151.901 88.5525C164.469 88.5525 177.038 88.5525 189.607 88.5525C202.176 88.5525 214.745 88.5525 227.314 88.5525C239.883 88.5525 252.451 1.22095 265.02 1.22095C277.589 1.22095 290.158 1.22095 302.727 1.22095C315.296 1.22095 327.865 1.22095 340.433 1.22095C353.002 1.22095 365.571 88.5525 378.14 88.5525C390.709 88.5525 403.278 88.5525 415.846 88.5525V117.663C403.278 117.663 390.709 117.663 378.14 117.663C365.571 117.663 353.002 117.663 340.433 117.663C327.865 117.663 315.296 117.663 302.727 117.663C290.158 117.663 277.589 117.663 265.02 117.663C252.451 117.663 239.883 117.663 227.314 117.663C214.745 117.663 202.176 117.663 189.607 117.663C177.038 117.663 164.469 117.663 151.901 117.663C139.332 117.663 126.763 117.663 114.194 117.663C101.625 117.663 89.0563 117.663 76.4875 117.663C63.9186 117.663 51.3498 117.663 38.7809 117.663C26.2121 117.663 13.6432 117.663 1.07434 117.663V88.5525Z" fill="#3366FF" fill-opacity="0.5"/>
<path d="M1.07434 88.5525C13.6432 44.8867 26.2121 1.22095 38.7809 1.22095C51.3498 1.22095 63.9186 1.22095 76.4875 1.22095C89.0563 1.22095 101.625 1.22095 114.194 1.22095C126.763 1.22095 139.332 88.5525 151.901 88.5525C164.469 88.5525 177.038 88.5525 189.607 88.5525C202.176 88.5525 214.745 88.5525 227.314 88.5525C239.883 88.5525 252.451 1.22095 265.02 1.22095C277.589 1.22095 290.158 1.22095 302.727 1.22095C315.296 1.22095 327.865 1.22095 340.433 1.22095C353.002 1.22095 365.571 88.5525 378.14 88.5525C390.709 88.5525 403.278 88.5525 415.846 88.5525" stroke="#3366FF"/>
</svg>
