<svg width="704" height="137" viewBox="0 0 704 137" fill="none" xmlns="http://www.w3.org/2000/svg">
<path d="M0 31.4167C46.9333 35.9417 93.8667 40.4667 140.8 40.4667C187.733 40.4667 234.667 16.3333 281.6 16.3333C328.533 16.3333 375.467 74.2533 422.4 74.2533C469.333 74.2533 516.267 1.25 563.2 1.25C610.133 1.25 657.067 54.0417 704 106.833V137C657.067 137 610.133 137 563.2 137C516.267 137 469.333 137 422.4 137C375.467 137 328.533 137 281.6 137C234.667 137 187.733 137 140.8 137C93.8667 137 46.9333 137 0 137V31.4167Z" fill="#FF008E" fill-opacity="0.6"/>
<path d="M0 31.4167C46.9333 35.9417 93.8667 40.4667 140.8 40.4667C187.733 40.4667 234.667 16.3333 281.6 16.3333C328.533 16.3333 375.467 74.2533 422.4 74.2533C469.333 74.2533 516.267 1.25 563.2 1.25C610.133 1.25 657.067 54.0417 704 106.833" stroke="#FF008E"/>
</svg>
