<svg width="432" height="132" viewBox="0 0 432 132" fill="none" xmlns="http://www.w3.org/2000/svg">
<path d="M0.460693 102.833C13.5227 100.889 26.5846 98.9444 39.6466 91.1667C52.7086 83.3889 65.7705 15.3333 78.8325 15.3333C91.8945 15.3333 104.956 29.9167 118.018 29.9167C131.08 29.9167 144.142 0.75 157.204 0.75C170.266 0.75 183.328 8.04167 196.39 15.3333C209.452 22.625 222.514 34.7778 235.576 44.5C248.638 54.2222 261.7 73.6667 274.762 73.6667C287.824 73.6667 300.886 23.1111 313.948 15.3333C327.01 7.55555 340.072 3.66667 353.134 3.66667C366.196 3.66667 379.258 102.833 392.32 102.833C405.382 102.833 418.444 102.833 431.506 102.833V132C418.444 132 405.382 132 392.32 132C379.258 132 366.196 132 353.134 132C340.072 132 327.01 132 313.948 132C300.886 132 287.824 132 274.762 132C261.7 132 248.638 132 235.576 132C222.514 132 209.452 132 196.39 132C183.328 132 170.266 132 157.204 132C144.142 132 131.08 132 118.018 132C104.956 132 91.8945 132 78.8325 132C65.7705 132 52.7086 132 39.6466 132C26.5846 132 13.5227 132 0.460693 132V102.833Z" fill="#3366FF" fill-opacity="0.5"/>
<path d="M0.460693 102.833C13.5227 100.889 26.5846 98.9444 39.6466 91.1667C52.7086 83.3889 65.7705 15.3333 78.8325 15.3333C91.8945 15.3333 104.956 29.9167 118.018 29.9167C131.08 29.9167 144.142 0.75 157.204 0.75C170.266 0.75 183.328 8.04167 196.39 15.3333C209.452 22.625 222.514 34.7778 235.576 44.5C248.638 54.2222 261.7 73.6667 274.762 73.6667C287.824 73.6667 300.886 23.1111 313.948 15.3333C327.01 7.55555 340.072 3.66667 353.134 3.66667C366.196 3.66667 379.258 102.833 392.32 102.833C405.382 102.833 418.444 102.833 431.506 102.833" stroke="#3366FF"/>
</svg>
