<svg width="455" height="126" viewBox="0 0 455 126" fill="none" xmlns="http://www.w3.org/2000/svg">
<path d="M1 90.3C14.7273 45.675 28.4545 1.05005 42.1818 1.05005C55.9091 1.05005 69.6364 9.55005 83.3636 24C97.0909 38.45 110.818 82.65 124.545 87.75C138.273 92.85 152 95.4 165.727 95.4C179.455 95.4 193.182 63.95 206.909 54.6C220.636 45.25 234.364 48.2251 248.091 39.3001C261.818 30.3751 275.545 1.05005 289.273 1.05005C303 1.05005 316.727 9.55005 330.455 24C344.182 38.45 357.909 82.65 371.636 87.75C385.364 92.85 399.091 95.4 412.818 95.4C426.545 95.4 440.273 75 454 54.6V126C440.273 126 426.545 126 412.818 126C399.091 126 385.364 126 371.636 126C357.909 126 344.182 126 330.455 126C316.727 126 303 126 289.273 126C275.545 126 261.818 126 248.091 126C234.364 126 220.636 126 206.909 126C193.182 126 179.455 126 165.727 126C152 126 138.273 126 124.545 126C110.818 126 97.0909 126 83.3636 126C69.6364 126 55.9091 126 42.1818 126C28.4545 126 14.7273 126 1 126V90.3Z" fill="#009379" fill-opacity="0.5"/>
<path d="M1 90.3C14.7273 45.675 28.4545 1.05005 42.1818 1.05005C55.9091 1.05005 69.6364 9.55005 83.3636 24C97.0909 38.45 110.818 82.65 124.545 87.75C138.273 92.85 152 95.4 165.727 95.4C179.455 95.4 193.182 63.95 206.909 54.6C220.636 45.25 234.364 48.2251 248.091 39.3001C261.818 30.3751 275.545 1.05005 289.273 1.05005C303 1.05005 316.727 9.55005 330.455 24C344.182 38.45 357.909 82.65 371.636 87.75C385.364 92.85 399.091 95.4 412.818 95.4C426.545 95.4 440.273 75 454 54.6" stroke="#009379"/>
</svg>
