<svg width="24" height="31" viewBox="0 0 24 31" fill="none" xmlns="http://www.w3.org/2000/svg">
<path d="M16.1252 25.3852C16.1252 26.5123 15.6906 27.5932 14.9171 28.3902C14.1435 29.1872 13.0943 29.635 12.0003 29.635C10.9063 29.635 9.8571 29.1872 9.08353 28.3902C8.30996 27.5932 7.87537 26.5123 7.87537 25.3852M12.9917 5.55701L10.9759 5.55276C6.37802 5.54143 2.38646 9.39033 2.35484 14.0524V19.4213C2.35484 20.5404 2.21734 21.6326 1.62473 22.5633L1.23011 23.1838C0.629244 24.1244 1.27548 25.3852 2.35484 25.3852H21.6458C22.7251 25.3852 23.37 24.1244 22.7705 23.1838L22.3759 22.5633C21.7846 21.6326 21.6458 20.539 21.6458 19.4199V14.0538C21.5908 9.39033 17.5896 5.56834 12.9917 5.55701V5.55701Z" stroke="#FF008E" stroke-width="2" stroke-linecap="round" stroke-linejoin="round"/>
<path d="M12.0004 1.30273C12.7298 1.30273 13.4292 1.60123 13.9449 2.13256C14.4607 2.66389 14.7504 3.38452 14.7504 4.13594V5.55254H9.25049V4.13594C9.25049 3.38452 9.54022 2.66389 10.0559 2.13256C10.5716 1.60123 11.2711 1.30273 12.0004 1.30273Z" stroke="#FF008E" stroke-width="2" stroke-linecap="round" stroke-linejoin="round"/>
</svg>
