<svg width="432" height="153" viewBox="0 0 432 153" fill="none" xmlns="http://www.w3.org/2000/svg">
<path d="M0.460693 112.167C13.5227 109.736 26.5846 107.306 39.6466 97.5834C52.7086 87.8612 65.7705 46.0556 78.8325 36.3334C91.8945 26.6112 104.956 27.5834 118.018 21.75C131.08 15.9167 144.142 1.33337 157.204 1.33337C170.266 1.33337 183.328 5.22226 196.39 13C209.452 20.7778 222.514 39.7362 235.576 53.8334C248.638 67.9306 261.7 97.5834 274.762 97.5834C287.824 97.5834 300.886 73.2778 313.948 65.5C327.01 57.7223 340.072 50.9167 353.134 50.9167C366.196 50.9167 379.258 118 392.32 118C405.382 118 418.444 94.6667 431.506 71.3334V153C418.444 153 405.382 153 392.32 153C379.258 153 366.196 153 353.134 153C340.072 153 327.01 153 313.948 153C300.886 153 287.824 153 274.762 153C261.7 153 248.638 153 235.576 153C222.514 153 209.452 153 196.39 153C183.328 153 170.266 153 157.204 153C144.142 153 131.08 153 118.018 153C104.956 153 91.8945 153 78.8325 153C65.7705 153 52.7086 153 39.6466 153C26.5846 153 13.5227 153 0.460693 153V112.167Z" fill="#009379" fill-opacity="0.5"/>
<path d="M0.460693 112.167C13.5227 109.736 26.5846 107.306 39.6466 97.5834C52.7086 87.8612 65.7705 46.0556 78.8325 36.3334C91.8945 26.6112 104.956 27.5834 118.018 21.75C131.08 15.9167 144.142 1.33337 157.204 1.33337C170.266 1.33337 183.328 5.22226 196.39 13C209.452 20.7778 222.514 39.7362 235.576 53.8334C248.638 67.9306 261.7 97.5834 274.762 97.5834C287.824 97.5834 300.886 73.2778 313.948 65.5C327.01 57.7223 340.072 50.9167 353.134 50.9167C366.196 50.9167 379.258 118 392.32 118C405.382 118 418.444 94.6667 431.506 71.3334" stroke="#009379"/>
</svg>
