<svg width="455" height="147" viewBox="0 0 455 147" fill="none" xmlns="http://www.w3.org/2000/svg">
<path d="M0 1.16663C13.7576 1.16663 27.5152 1.16663 41.2727 1.16663C55.0303 1.16663 68.7879 49.7777 82.5455 59.5C96.303 69.2222 110.061 65.3333 123.818 74.0833C137.576 82.8333 151.333 112 165.091 112C178.848 112 192.606 76.0277 206.364 65.3333C220.121 54.6389 233.879 53.1805 247.636 47.8333C261.394 42.4861 275.152 33.25 288.909 33.25C302.667 33.25 316.424 52.6944 330.182 59.5C343.939 66.3055 357.697 65.3333 371.455 74.0833C385.212 82.8333 398.97 112 412.727 112C426.485 112 440.242 103.25 454 94.5V147C440.242 147 426.485 147 412.727 147C398.97 147 385.212 147 371.455 147C357.697 147 343.939 147 330.182 147C316.424 147 302.667 147 288.909 147C275.152 147 261.394 147 247.636 147C233.879 147 220.121 147 206.364 147C192.606 147 178.848 147 165.091 147C151.333 147 137.576 147 123.818 147C110.061 147 96.303 147 82.5455 147C68.7879 147 55.0303 147 41.2727 147C27.5152 147 13.7576 147 0 147V1.16663Z" fill="#3366FF" fill-opacity="0.5"/>
<path d="M0 1.16663C13.7576 1.16663 27.5152 1.16663 41.2727 1.16663C55.0303 1.16663 68.7879 49.7777 82.5455 59.5C96.303 69.2222 110.061 65.3333 123.818 74.0833C137.576 82.8333 151.333 112 165.091 112C178.848 112 192.606 76.0277 206.364 65.3333C220.121 54.6389 233.879 53.1805 247.636 47.8333C261.394 42.4861 275.152 33.25 288.909 33.25C302.667 33.25 316.424 52.6944 330.182 59.5C343.939 66.3055 357.697 65.3333 371.455 74.0833C385.212 82.8333 398.97 112 412.727 112C426.485 112 440.242 103.25 454 94.5" stroke="#3366FF"/>
</svg>
