<svg width="455" height="118" viewBox="0 0 455 118" fill="none" xmlns="http://www.w3.org/2000/svg">
<path d="M1.11414 88.5525C14.8678 44.8867 28.6214 1.22095 42.375 1.22095C56.1286 1.22095 69.8823 1.22095 83.6359 1.22095C97.3895 1.22095 111.143 1.22095 124.897 1.22095C138.65 1.22095 152.404 88.5525 166.158 88.5525C179.911 88.5525 193.665 88.5525 207.418 88.5525C221.172 88.5525 234.926 88.5525 248.679 88.5525C262.433 88.5525 276.187 1.22095 289.94 1.22095C303.694 1.22095 317.447 1.22095 331.201 1.22095C344.955 1.22095 358.708 1.22095 372.462 1.22095C386.216 1.22095 399.969 88.5525 413.723 88.5525C427.476 88.5525 441.23 88.5525 454.984 88.5525V117.663C441.23 117.663 427.476 117.663 413.723 117.663C399.969 117.663 386.216 117.663 372.462 117.663C358.708 117.663 344.955 117.663 331.201 117.663C317.447 117.663 303.694 117.663 289.94 117.663C276.187 117.663 262.433 117.663 248.679 117.663C234.926 117.663 221.172 117.663 207.418 117.663C193.665 117.663 179.911 117.663 166.158 117.663C152.404 117.663 138.65 117.663 124.897 117.663C111.143 117.663 97.3895 117.663 83.6359 117.663C69.8823 117.663 56.1286 117.663 42.375 117.663C28.6214 117.663 14.8678 117.663 1.11414 117.663V88.5525Z" fill="#3366FF" fill-opacity="0.5"/>
<path d="M1.11414 88.5525C14.8678 44.8867 28.6214 1.22095 42.375 1.22095C56.1286 1.22095 69.8823 1.22095 83.6359 1.22095C97.3895 1.22095 111.143 1.22095 124.897 1.22095C138.65 1.22095 152.404 88.5525 166.158 88.5525C179.911 88.5525 193.665 88.5525 207.418 88.5525C221.172 88.5525 234.926 88.5525 248.679 88.5525C262.433 88.5525 276.187 1.22095 289.94 1.22095C303.694 1.22095 317.447 1.22095 331.201 1.22095C344.955 1.22095 358.708 1.22095 372.462 1.22095C386.216 1.22095 399.969 88.5525 413.723 88.5525C427.476 88.5525 441.23 88.5525 454.984 88.5525" stroke="#3366FF"/>
</svg>
