<svg width="455" height="132" viewBox="0 0 455 132" fill="none" xmlns="http://www.w3.org/2000/svg">
<path d="M1 102.833C14.7576 100.889 28.5152 98.9445 42.2727 91.1667C56.0303 83.3889 69.7879 15.3333 83.5455 15.3333C97.303 15.3333 111.061 29.9167 124.818 29.9167C138.576 29.9167 152.333 0.75 166.091 0.75C179.848 0.75 193.606 8.04167 207.364 15.3333C221.121 22.625 234.879 34.7778 248.636 44.5C262.394 54.2222 276.152 73.6667 289.909 73.6667C303.667 73.6667 317.424 23.1111 331.182 15.3333C344.939 7.55555 358.697 3.66667 372.455 3.66667C386.212 3.66667 399.97 102.833 413.727 102.833C427.485 102.833 441.242 102.833 455 102.833V132C441.242 132 427.485 132 413.727 132C399.97 132 386.212 132 372.455 132C358.697 132 344.939 132 331.182 132C317.424 132 303.667 132 289.909 132C276.152 132 262.394 132 248.636 132C234.879 132 221.121 132 207.364 132C193.606 132 179.848 132 166.091 132C152.333 132 138.576 132 124.818 132C111.061 132 97.303 132 83.5455 132C69.7879 132 56.0303 132 42.2727 132C28.5152 132 14.7576 132 1 132V102.833Z" fill="#3366FF" fill-opacity="0.5"/>
<path d="M1 102.833C14.7576 100.889 28.5152 98.9444 42.2727 91.1667C56.0303 83.3889 69.7879 15.3333 83.5455 15.3333C97.303 15.3333 111.061 29.9167 124.818 29.9167C138.576 29.9167 152.333 0.75 166.091 0.75C179.848 0.75 193.606 8.04167 207.364 15.3333C221.121 22.625 234.879 34.7778 248.636 44.5C262.394 54.2222 276.152 73.6667 289.909 73.6667C303.667 73.6667 317.424 23.1111 331.182 15.3333C344.939 7.55555 358.697 3.66667 372.455 3.66667C386.212 3.66667 399.97 102.833 413.727 102.833C427.485 102.833 441.242 102.833 455 102.833" stroke="#3366FF"/>
</svg>
