<svg width="24" height="30" viewBox="0 0 24 30" fill="none" xmlns="http://www.w3.org/2000/svg">
<path d="M16.1252 24.3747C16.1252 25.4687 15.6906 26.5179 14.9171 27.2915C14.1435 28.065 13.0943 28.4996 12.0003 28.4996C10.9063 28.4996 9.8571 28.065 9.08353 27.2915C8.30996 26.5179 7.87537 25.4687 7.87537 24.3747M12.9917 5.12915L10.9759 5.12502C6.37802 5.11402 2.38646 8.84983 2.35484 13.3749V18.586C2.35484 19.6723 2.21734 20.7324 1.62473 21.6357L1.23011 22.238C0.629244 23.151 1.27548 24.3747 2.35484 24.3747H21.6458C22.7251 24.3747 23.37 23.151 22.7705 22.238L22.3759 21.6357C21.7846 20.7324 21.6458 19.6709 21.6458 18.5847V13.3763C21.5908 8.84983 17.5896 5.14015 12.9917 5.12915V5.12915Z" stroke="#FF008E" stroke-width="2" stroke-linecap="round" stroke-linejoin="round"/>
<path d="M12.0004 1C12.7298 1 13.4292 1.28973 13.9449 1.80544C14.4607 2.32116 14.7504 3.02062 14.7504 3.74995V5.12493H9.25049V3.74995C9.25049 3.02062 9.54022 2.32116 10.0559 1.80544C10.5716 1.28973 11.2711 1 12.0004 1Z" stroke="#FF008E" stroke-width="2" stroke-linecap="round" stroke-linejoin="round"/>
</svg>
