<svg width="24" height="30" viewBox="0 0 24 30" fill="none" xmlns="http://www.w3.org/2000/svg">
<path d="M16.1252 24.3746C16.1252 25.4686 15.6906 26.5178 14.9171 27.2914C14.1435 28.065 13.0943 28.4996 12.0003 28.4996C10.9063 28.4996 9.8571 28.065 9.08353 27.2914C8.30996 26.5178 7.87537 25.4686 7.87537 24.3746M12.9917 5.12909L10.9759 5.12496C6.37802 5.11396 2.38646 8.84977 2.35484 13.3748V18.586C2.35484 19.6722 2.21734 20.7323 1.62473 21.6357L1.23011 22.2379C0.629244 23.1509 1.27548 24.3746 2.35484 24.3746H21.6458C22.7251 24.3746 23.37 23.1509 22.7705 22.2379L22.3759 21.6357C21.7846 20.7323 21.6458 19.6708 21.6458 18.5846V13.3762C21.5908 8.84977 17.5896 5.14009 12.9917 5.12909V5.12909Z" stroke="#FF008E" stroke-width="2" stroke-linecap="round" stroke-linejoin="round"/>
<path d="M12.0002 1C12.7295 1 13.429 1.28973 13.9447 1.80544C14.4604 2.32116 14.7501 3.02062 14.7501 3.74995V5.12493H9.25024V3.74995C9.25024 3.02062 9.53997 2.32116 10.0557 1.80544C10.5714 1.28973 11.2709 1 12.0002 1Z" stroke="#FF008E" stroke-width="2" stroke-linecap="round" stroke-linejoin="round"/>
</svg>
