<svg width="456" height="153" viewBox="0 0 456 153" fill="none" xmlns="http://www.w3.org/2000/svg">
<path d="M1 112.167C14.7576 109.736 28.5152 107.306 42.2727 97.5834C56.0303 87.8612 69.7879 46.0556 83.5455 36.3334C97.303 26.6112 111.061 27.5834 124.818 21.75C138.576 15.9167 152.333 1.33337 166.091 1.33337C179.848 1.33337 193.606 5.22226 207.364 13C221.121 20.7778 234.879 39.7362 248.636 53.8334C262.394 67.9306 276.152 97.5834 289.909 97.5834C303.667 97.5834 317.424 73.2778 331.182 65.5C344.939 57.7223 358.697 50.9167 372.455 50.9167C386.212 50.9167 399.97 118 413.727 118C427.485 118 441.242 94.6667 455 71.3334V153C441.242 153 427.485 153 413.727 153C399.97 153 386.212 153 372.455 153C358.697 153 344.939 153 331.182 153C317.424 153 303.667 153 289.909 153C276.152 153 262.394 153 248.636 153C234.879 153 221.121 153 207.364 153C193.606 153 179.848 153 166.091 153C152.333 153 138.576 153 124.818 153C111.061 153 97.303 153 83.5455 153C69.7879 153 56.0303 153 42.2727 153C28.5152 153 14.7576 153 1 153V112.167Z" fill="#009379" fill-opacity="0.5"/>
<path d="M1 112.167C14.7576 109.736 28.5152 107.306 42.2727 97.5834C56.0303 87.8612 69.7879 46.0556 83.5455 36.3334C97.303 26.6112 111.061 27.5834 124.818 21.75C138.576 15.9167 152.333 1.33337 166.091 1.33337C179.848 1.33337 193.606 5.22226 207.364 13C221.121 20.7778 234.879 39.7362 248.636 53.8334C262.394 67.9306 276.152 97.5834 289.909 97.5834C303.667 97.5834 317.424 73.2778 331.182 65.5C344.939 57.7223 358.697 50.9167 372.455 50.9167C386.212 50.9167 399.97 118 413.727 118C427.485 118 441.242 94.6667 455 71.3334" stroke="#009379"/>
</svg>
