<svg width="354" height="37" viewBox="0 0 354 37" fill="none" xmlns="http://www.w3.org/2000/svg">
<path d="M0.186768 0H9.18677V18.5H0.186768V0Z" fill="#3366FF"/>
<path d="M12.0535 0H21.0535V18.5H12.0535V0Z" fill="#3366FF"/>
<path d="M23.9202 0H32.9202V18.5H23.9202V0Z" fill="#3366FF"/>
<path d="M35.7869 0H44.7869V18.5H35.7869V0Z" fill="#3366FF"/>
<path d="M47.6533 0H56.6533V18.5H47.6533V0Z" fill="#3366FF"/>
<path d="M59.52 0H68.52V18.5H59.52V0Z" fill="#3366FF"/>
<path d="M71.3867 0H80.3867V18.5H71.3867V0Z" fill="#3366FF"/>
<path d="M83.2534 0H92.2534V18.5H83.2534V0Z" fill="#3366FF"/>
<path d="M95.1201 37H104.12V18.5H95.1201V37Z" fill="#3366FF"/>
<path d="M106.987 37H115.987V18.5H106.987V37Z" fill="#3366FF"/>
<path d="M118.854 0H127.854V18.5H118.854V0Z" fill="#3366FF"/>
<path d="M130.72 0H139.72V18.5H130.72V0Z" fill="#3366FF"/>
<path d="M142.587 0H151.587V18.5H142.587V0Z" fill="#3366FF"/>
<path d="M154.453 0H163.453V18.5H154.453V0Z" fill="#3366FF"/>
<path d="M166.32 0H175.32V18.5H166.32V0Z" fill="#3366FF"/>
<path d="M178.187 0H187.187V18.5H178.187V0Z" fill="#3366FF"/>
<path d="M190.053 0H199.053V18.5H190.053V0Z" fill="#3366FF"/>
<path d="M201.92 0H210.92V18.5H201.92V0Z" fill="#3366FF"/>
<path d="M213.787 0H222.787V18.5H213.787V0Z" fill="#3366FF"/>
<path d="M225.653 0H234.653V18.5H225.653V0Z" fill="#3366FF"/>
<path d="M237.52 0H246.52V18.5H237.52V0Z" fill="#3366FF"/>
<path d="M249.387 37H258.387V18.5H249.387V37Z" fill="#3366FF"/>
<path d="M261.253 0H270.253V18.5H261.253V0Z" fill="#3366FF"/>
<path d="M273.12 0H282.12V18.5H273.12V0Z" fill="#3366FF"/>
<path d="M284.987 0H293.987V18.5H284.987V0Z" fill="#3366FF"/>
<path d="M296.854 37H305.854V18.5H296.854V37Z" fill="#3366FF"/>
<path d="M308.72 0H317.72V18.5H308.72V0Z" fill="#3366FF"/>
<path d="M320.587 0H329.587V18.5H320.587V0Z" fill="#3366FF"/>
<path d="M332.453 0H341.453V18.5H332.453V0Z" fill="#3366FF"/>
<path d="M344.32 0H353.32V18.5H344.32V0Z" fill="#3366FF"/>
</svg>
