<svg width="416" height="103" viewBox="0 0 416 103" fill="none" xmlns="http://www.w3.org/2000/svg">
<path d="M0.95874 1C13.5013 39.25 26.0438 77.5 38.5864 77.5C51.129 77.5 63.6715 77.5 76.2141 77.5C88.7566 77.5 101.299 1 113.842 1C126.384 1 138.927 1 151.469 1C164.012 1 176.554 1 189.097 1C201.64 1 214.182 39.25 226.725 52C239.267 64.75 251.81 77.5 264.352 77.5C276.895 77.5 289.437 77.5 301.98 77.5C314.523 77.5 327.065 77.5 339.608 77.5C352.15 77.5 364.693 64.75 377.235 52C389.778 39.25 402.32 20.125 414.863 1V103C402.32 103 389.778 103 377.235 103C364.693 103 352.15 103 339.608 103C327.065 103 314.523 103 301.98 103C289.437 103 276.895 103 264.352 103C251.81 103 239.267 103 226.725 103C214.182 103 201.64 103 189.097 103C176.554 103 164.012 103 151.469 103C138.927 103 126.384 103 113.842 103C101.299 103 88.7566 103 76.2141 103C63.6715 103 51.129 103 38.5864 103C26.0438 103 13.5013 103 0.95874 103V1Z" fill="#3366FF" fill-opacity="0.5"/>
<path d="M0.95874 1C13.5013 39.25 26.0438 77.5 38.5864 77.5C51.129 77.5 63.6715 77.5 76.2141 77.5C88.7566 77.5 101.299 1 113.842 1C126.384 1 138.927 1 151.469 1C164.012 1 176.554 1 189.097 1C201.64 1 214.182 39.25 226.725 52C239.267 64.75 251.81 77.5 264.352 77.5C276.895 77.5 289.437 77.5 301.98 77.5C314.523 77.5 327.065 77.5 339.608 77.5C352.15 77.5 364.693 64.75 377.235 52C389.778 39.25 402.32 20.125 414.863 1" stroke="#3366FF"/>
</svg>
