<svg width="456" height="144" viewBox="0 0 456 144" fill="none" xmlns="http://www.w3.org/2000/svg">
<path d="M1.11414 102.908C14.8678 51.965 28.6214 1.02161 42.375 1.02161C56.1286 1.02161 69.8823 10.7251 83.6359 27.2211C97.3895 43.717 111.143 94.1752 124.897 99.9973C138.65 105.819 152.404 108.73 166.158 108.73C179.911 108.73 193.665 72.8275 207.418 62.1537C221.172 51.4798 234.926 54.876 248.679 44.6874C262.433 34.4987 276.187 1.02161 289.94 1.02161C303.694 1.02161 317.447 10.7251 331.201 27.2211C344.955 43.717 358.708 94.1752 372.462 99.9973C386.216 105.819 399.969 108.73 413.723 108.73C427.476 108.73 441.23 85.4421 454.984 62.1537V143.663C441.23 143.663 427.476 143.663 413.723 143.663C399.969 143.663 386.216 143.663 372.462 143.663C358.708 143.663 344.955 143.663 331.201 143.663C317.447 143.663 303.694 143.663 289.94 143.663C276.187 143.663 262.433 143.663 248.679 143.663C234.926 143.663 221.172 143.663 207.418 143.663C193.665 143.663 179.911 143.663 166.158 143.663C152.404 143.663 138.65 143.663 124.897 143.663C111.143 143.663 97.3895 143.663 83.6359 143.663C69.8823 143.663 56.1286 143.663 42.375 143.663C28.6214 143.663 14.8678 143.663 1.11414 143.663V102.908Z" fill="#009379" fill-opacity="0.5"/>
<path d="M1.11414 102.908C14.8678 51.965 28.6214 1.02161 42.375 1.02161C56.1286 1.02161 69.8823 10.7251 83.6359 27.2211C97.3895 43.717 111.143 94.1752 124.897 99.9973C138.65 105.819 152.404 108.73 166.158 108.73C179.911 108.73 193.665 72.8275 207.418 62.1537C221.172 51.4798 234.926 54.876 248.679 44.6874C262.433 34.4987 276.187 1.02161 289.94 1.02161C303.694 1.02161 317.447 10.7251 331.201 27.2211C344.955 43.717 358.708 94.1752 372.462 99.9973C386.216 105.819 399.969 108.73 413.723 108.73C427.476 108.73 441.23 85.4421 454.984 62.1537" stroke="#009379"/>
</svg>
