<svg width="30" height="30" viewBox="0 0 30 30" fill="none" xmlns="http://www.w3.org/2000/svg">
<path d="M18.5 5.76626L26.8762 19.7175C28.08 21.7213 27.4888 24.3575 25.555 25.605C24.906 26.0252 24.1494 26.2492 23.3763 26.25H6.6225C4.34625 26.25 2.5 24.3375 2.5 21.9763C2.5 21.1775 2.71625 20.3963 3.1225 19.7175L11.5 5.76626C12.7025 3.76251 15.245 3.14876 17.1788 4.39626C17.7138 4.74126 18.1663 5.21001 18.5 5.76626ZM15.725 6.81501C15.572 6.71658 15.4006 6.65019 15.2212 6.61985C15.0418 6.58952 14.8581 6.59586 14.6812 6.63851C14.5043 6.68115 14.3379 6.7592 14.192 6.86796C14.0462 6.97671 13.9239 7.11391 13.8325 7.27126L5.45625 21.225C5.32019 21.4524 5.24846 21.7125 5.24875 21.9775C5.24875 22.765 5.86375 23.4025 6.62375 23.4025H23.375C23.6325 23.4025 23.8838 23.3275 24.1013 23.1875C24.4134 22.9801 24.6334 22.6604 24.7156 22.2948C24.7978 21.9292 24.7358 21.546 24.5425 21.225L16.1662 7.27126C16.0564 7.08753 15.9059 6.93145 15.7263 6.81501H15.725ZM15 21.25C14.6685 21.25 14.3505 21.1183 14.1161 20.8839C13.8817 20.6495 13.75 20.3315 13.75 20C13.75 19.6685 13.8817 19.3505 14.1161 19.1161C14.3505 18.8817 14.6685 18.75 15 18.75C15.3315 18.75 15.6495 18.8817 15.8839 19.1161C16.1183 19.3505 16.25 19.6685 16.25 20C16.25 20.3315 16.1183 20.6495 15.8839 20.8839C15.6495 21.1183 15.3315 21.25 15 21.25ZM15 10C15.3315 10 15.6495 10.1317 15.8839 10.3661C16.1183 10.6005 16.25 10.9185 16.25 11.25V16.25C16.25 16.5815 16.1183 16.8995 15.8839 17.1339C15.6495 17.3683 15.3315 17.5 15 17.5C14.6685 17.5 14.3505 17.3683 14.1161 17.1339C13.8817 16.8995 13.75 16.5815 13.75 16.25V11.25C13.75 10.9185 13.8817 10.6005 14.1161 10.3661C14.3505 10.1317 14.6685 10 15 10V10Z" fill="#FF008E"/>
</svg>
