<svg width="19" height="18" viewBox="0 0 19 18" fill="none" xmlns="http://www.w3.org/2000/svg">
<g clip-path="url(#clip0_63_3118)">
<path d="M0.598877 2C0.598877 0.89543 1.49431 0 2.59888 0H16.5989C17.7034 0 18.5989 0.895431 18.5989 2V16C18.5989 17.1046 17.7034 18 16.5989 18H2.59888C1.49431 18 0.598877 17.1046 0.598877 16V2Z" fill="#6200EE"/>
<path d="M7.19519 11.9062L4.06769 8.77869L3.00269 9.83619L7.19519 14.0287L16.1952 5.02869L15.1377 3.97119L7.19519 11.9062Z" fill="white"/>
</g>
<path d="M1.59888 2C1.59888 1.44772 2.04659 1 2.59888 1H16.5989C17.1512 1 17.5989 1.44772 17.5989 2V16C17.5989 16.5523 17.1512 17 16.5989 17H2.59888C2.04659 17 1.59888 16.5523 1.59888 16V2Z" stroke="#6200EE" stroke-width="2"/>
<defs>
<clipPath id="clip0_63_3118">
<path d="M0.598877 2C0.598877 0.89543 1.49431 0 2.59888 0H16.5989C17.7034 0 18.5989 0.895431 18.5989 2V16C18.5989 17.1046 17.7034 18 16.5989 18H2.59888C1.49431 18 0.598877 17.1046 0.598877 16V2Z" fill="white"/>
</clipPath>
</defs>
</svg>
