<svg width="200" height="55" viewBox="0 0 200 55" fill="none" xmlns="http://www.w3.org/2000/svg">
<path d="M20.3984 32.5H18.0234L18.0391 31.2734H20.3984C21.2109 31.2734 21.888 31.1042 22.4297 30.7656C22.9714 30.4219 23.3776 29.9427 23.6484 29.3281C23.9245 28.7083 24.0625 27.9844 24.0625 27.1562V26.4609C24.0625 25.8099 23.9844 25.2318 23.8281 24.7266C23.6719 24.2161 23.4427 23.7865 23.1406 23.4375C22.8385 23.0833 22.4688 22.8151 22.0312 22.6328C21.599 22.4505 21.1016 22.3594 20.5391 22.3594H17.9766V21.125H20.5391C21.2839 21.125 21.9635 21.25 22.5781 21.5C23.1927 21.7448 23.7214 22.1016 24.1641 22.5703C24.612 23.0339 24.9557 23.5964 25.1953 24.2578C25.4349 24.9141 25.5547 25.6536 25.5547 26.4766V27.1562C25.5547 27.9792 25.4349 28.7214 25.1953 29.3828C24.9557 30.0391 24.6094 30.599 24.1562 31.0625C23.7083 31.526 23.1667 31.8828 22.5312 32.1328C21.901 32.3776 21.1901 32.5 20.3984 32.5ZM18.8281 21.125V32.5H17.3203V21.125H18.8281ZM32.7359 31.0547V26.7031C32.7359 26.3698 32.6682 26.0807 32.5328 25.8359C32.4026 25.5859 32.2047 25.3932 31.9391 25.2578C31.6734 25.1224 31.3453 25.0547 30.9547 25.0547C30.5901 25.0547 30.2698 25.1172 29.9937 25.2422C29.7229 25.3672 29.5094 25.5312 29.3531 25.7344C29.2021 25.9375 29.1266 26.1562 29.1266 26.3906H27.6812C27.6812 26.0885 27.7594 25.7891 27.9156 25.4922C28.0719 25.1953 28.2958 24.9271 28.5875 24.6875C28.8844 24.4427 29.2385 24.25 29.65 24.1094C30.0667 23.9635 30.5302 23.8906 31.0406 23.8906C31.6552 23.8906 32.1969 23.9948 32.6656 24.2031C33.1396 24.4115 33.5094 24.7266 33.775 25.1484C34.0458 25.5651 34.1812 26.0885 34.1812 26.7188V30.6562C34.1812 30.9375 34.2047 31.237 34.2516 31.5547C34.3036 31.8724 34.3792 32.1458 34.4781 32.375V32.5H32.9703C32.8974 32.3333 32.8401 32.112 32.7984 31.8359C32.7568 31.5547 32.7359 31.2943 32.7359 31.0547ZM32.9859 27.375L33.0016 28.3906H31.5406C31.1292 28.3906 30.762 28.4245 30.4391 28.4922C30.1161 28.5547 29.8453 28.651 29.6266 28.7812C29.4078 28.9115 29.2411 29.0755 29.1266 29.2734C29.012 29.4661 28.9547 29.6927 28.9547 29.9531C28.9547 30.2188 29.0146 30.4609 29.1344 30.6797C29.2542 30.8984 29.4339 31.0729 29.6734 31.2031C29.9182 31.3281 30.2177 31.3906 30.5719 31.3906C31.0146 31.3906 31.4052 31.2969 31.7437 31.1094C32.0823 30.9219 32.3505 30.6927 32.5484 30.4219C32.7516 30.151 32.8609 29.888 32.8766 29.6328L33.4937 30.3281C33.4573 30.5469 33.3583 30.7891 33.1969 31.0547C33.0354 31.3203 32.8193 31.5755 32.5484 31.8203C32.2828 32.0599 31.9651 32.2604 31.5953 32.4219C31.2307 32.5781 30.8193 32.6562 30.3609 32.6562C29.788 32.6562 29.2854 32.5443 28.8531 32.3203C28.426 32.0964 28.0927 31.7969 27.8531 31.4219C27.6187 31.0417 27.5016 30.6172 27.5016 30.1484C27.5016 29.6953 27.5901 29.2969 27.7672 28.9531C27.9443 28.6042 28.1995 28.3151 28.5328 28.0859C28.8661 27.8516 29.2672 27.6745 29.7359 27.5547C30.2047 27.4349 30.7281 27.375 31.3062 27.375H32.9859ZM38.8547 31.625L41.2062 24.0469H42.7531L39.3625 33.8047C39.2844 34.013 39.1802 34.237 39.05 34.4766C38.925 34.7214 38.7635 34.9531 38.5656 35.1719C38.3677 35.3906 38.1281 35.5677 37.8469 35.7031C37.5708 35.8438 37.2401 35.9141 36.8547 35.9141C36.7401 35.9141 36.5943 35.8984 36.4172 35.8672C36.2401 35.8359 36.1151 35.8099 36.0422 35.7891L36.0344 34.6172C36.076 34.6224 36.1411 34.6276 36.2297 34.6328C36.3234 34.6432 36.3885 34.6484 36.425 34.6484C36.7531 34.6484 37.0318 34.6042 37.2609 34.5156C37.4901 34.4323 37.6828 34.2891 37.8391 34.0859C38.0005 33.888 38.1385 33.6146 38.2531 33.2656L38.8547 31.625ZM37.1281 24.0469L39.3234 30.6094L39.6984 32.1328L38.6594 32.6641L35.55 24.0469H37.1281Z" fill="black" fill-opacity="0.6"/>
<path d="M167 25.5L172 30.5L177 25.5H167Z" fill="black"/>
<path d="M4 0.25H196C198.071 0.25 199.75 1.92893 199.75 4V54.75H0.25V4C0.25 1.92893 1.92893 0.25 4 0.25Z" stroke="#989898" stroke-width="0.5"/>
</svg>
