<svg width="112" height="29" viewBox="0 0 112 29" fill="none" xmlns="http://www.w3.org/2000/svg">
<path d="M17.7969 8.125H19.2578L22.9844 17.3984L26.7031 8.125H28.1719L23.5469 19.5H22.4062L17.7969 8.125ZM17.3203 8.125H18.6094L18.8203 15.0625V19.5H17.3203V8.125ZM27.3516 8.125H28.6406V19.5H27.1406V15.0625L27.3516 8.125ZM30.8375 15.3672V15.1875C30.8375 14.5781 30.926 14.013 31.1031 13.4922C31.2802 12.9661 31.5354 12.5104 31.8687 12.125C32.2021 11.7344 32.6057 11.4323 33.0797 11.2188C33.5536 11 34.0849 10.8906 34.6734 10.8906C35.2672 10.8906 35.801 11 36.275 11.2188C36.7542 11.4323 37.1604 11.7344 37.4937 12.125C37.8323 12.5104 38.0901 12.9661 38.2672 13.4922C38.4443 14.013 38.5328 14.5781 38.5328 15.1875V15.3672C38.5328 15.9766 38.4443 16.5417 38.2672 17.0625C38.0901 17.5833 37.8323 18.0391 37.4937 18.4297C37.1604 18.8151 36.7568 19.1172 36.2828 19.3359C35.8141 19.5495 35.2828 19.6562 34.6891 19.6562C34.0953 19.6562 33.5615 19.5495 33.0875 19.3359C32.6135 19.1172 32.2073 18.8151 31.8687 18.4297C31.5354 18.0391 31.2802 17.5833 31.1031 17.0625C30.926 16.5417 30.8375 15.9766 30.8375 15.3672ZM32.2828 15.1875V15.3672C32.2828 15.7891 32.3323 16.1875 32.4312 16.5625C32.5302 16.9323 32.6786 17.2604 32.8766 17.5469C33.0797 17.8333 33.3323 18.0599 33.6344 18.2266C33.9365 18.388 34.288 18.4688 34.6891 18.4688C35.0849 18.4688 35.4312 18.388 35.7281 18.2266C36.0302 18.0599 36.2802 17.8333 36.4781 17.5469C36.676 17.2604 36.8245 16.9323 36.9234 16.5625C37.0276 16.1875 37.0797 15.7891 37.0797 15.3672V15.1875C37.0797 14.7708 37.0276 14.3776 36.9234 14.0078C36.8245 13.6328 36.6734 13.3021 36.4703 13.0156C36.2724 12.724 36.0224 12.4948 35.7203 12.3281C35.4234 12.1615 35.0745 12.0781 34.6734 12.0781C34.2776 12.0781 33.9286 12.1615 33.6266 12.3281C33.3297 12.4948 33.0797 12.724 32.8766 13.0156C32.6786 13.3021 32.5302 13.6328 32.4312 14.0078C32.3323 14.3776 32.2828 14.7708 32.2828 15.1875ZM41.9406 12.8516V19.5H40.4953V11.0469H41.8625L41.9406 12.8516ZM41.5969 14.9531L40.9953 14.9297C41.0005 14.3516 41.0865 13.8177 41.2531 13.3281C41.4198 12.8333 41.6542 12.4036 41.9562 12.0391C42.2583 11.6745 42.6177 11.3932 43.0344 11.1953C43.4562 10.9922 43.9224 10.8906 44.4328 10.8906C44.8495 10.8906 45.2245 10.9479 45.5578 11.0625C45.8911 11.1719 46.175 11.349 46.4094 11.5938C46.649 11.8385 46.8312 12.1562 46.9562 12.5469C47.0812 12.9323 47.1437 13.4036 47.1437 13.9609V19.5H45.6906V13.9453C45.6906 13.5026 45.6255 13.1484 45.4953 12.8828C45.3651 12.612 45.175 12.4167 44.925 12.2969C44.675 12.1719 44.3677 12.1094 44.0031 12.1094C43.6437 12.1094 43.3156 12.1849 43.0187 12.3359C42.7271 12.487 42.4745 12.6953 42.2609 12.9609C42.0526 13.2266 41.8885 13.5312 41.7687 13.875C41.6542 14.2135 41.5969 14.5729 41.5969 14.9531ZM53.0281 11.0469V12.1562H48.4578V11.0469H53.0281ZM50.0047 8.99219H51.45V17.4062C51.45 17.6927 51.4943 17.9089 51.5828 18.0547C51.6714 18.2005 51.7859 18.2969 51.9266 18.3438C52.0672 18.3906 52.2182 18.4141 52.3797 18.4141C52.4995 18.4141 52.6245 18.4036 52.7547 18.3828C52.8901 18.3568 52.9917 18.3359 53.0594 18.3203L53.0672 19.5C52.9526 19.5365 52.8016 19.5703 52.6141 19.6016C52.4318 19.638 52.2104 19.6562 51.95 19.6562C51.5958 19.6562 51.2703 19.5859 50.9734 19.4453C50.6766 19.3047 50.4396 19.0703 50.2625 18.7422C50.0906 18.4089 50.0047 17.9609 50.0047 17.3984V8.99219ZM56.3187 7.5V19.5H54.8734V7.5H56.3187ZM55.975 14.9531L55.3734 14.9297C55.3786 14.3516 55.4646 13.8177 55.6312 13.3281C55.7979 12.8333 56.0323 12.4036 56.3344 12.0391C56.6365 11.6745 56.9958 11.3932 57.4125 11.1953C57.8344 10.9922 58.3005 10.8906 58.8109 10.8906C59.2276 10.8906 59.6026 10.9479 59.9359 11.0625C60.2693 11.1719 60.5531 11.349 60.7875 11.5938C61.0271 11.8385 61.2094 12.1562 61.3344 12.5469C61.4594 12.9323 61.5219 13.4036 61.5219 13.9609V19.5H60.0687V13.9453C60.0687 13.5026 60.0036 13.1484 59.8734 12.8828C59.7432 12.612 59.5531 12.4167 59.3031 12.2969C59.0531 12.1719 58.7458 12.1094 58.3812 12.1094C58.0219 12.1094 57.6937 12.1849 57.3969 12.3359C57.1052 12.487 56.8526 12.6953 56.6391 12.9609C56.4307 13.2266 56.2667 13.5312 56.1469 13.875C56.0323 14.2135 55.975 14.5729 55.975 14.9531Z" fill="black" fill-opacity="0.6"/>
<path d="M79 12.5L84 17.5L89 12.5H79Z" fill="black"/>
<path d="M0.25 4C0.25 1.92893 1.92893 0.25 4 0.25H108C110.071 0.25 111.75 1.92893 111.75 4V28.75H0.25V4Z" stroke="#989898" stroke-width="0.5"/>
</svg>
