<svg width="200" height="55" viewBox="0 0 200 55" fill="none" xmlns="http://www.w3.org/2000/svg">
<path d="M17.7969 21.125H19.2578L22.9844 30.3984L26.7031 21.125H28.1719L23.5469 32.5H22.4062L17.7969 21.125ZM17.3203 21.125H18.6094L18.8203 28.0625V32.5H17.3203V21.125ZM27.3516 21.125H28.6406V32.5H27.1406V28.0625L27.3516 21.125ZM30.8375 28.3672V28.1875C30.8375 27.5781 30.926 27.013 31.1031 26.4922C31.2802 25.9661 31.5354 25.5104 31.8687 25.125C32.2021 24.7344 32.6057 24.4323 33.0797 24.2188C33.5536 24 34.0849 23.8906 34.6734 23.8906C35.2672 23.8906 35.801 24 36.275 24.2188C36.7542 24.4323 37.1604 24.7344 37.4937 25.125C37.8323 25.5104 38.0901 25.9661 38.2672 26.4922C38.4443 27.013 38.5328 27.5781 38.5328 28.1875V28.3672C38.5328 28.9766 38.4443 29.5417 38.2672 30.0625C38.0901 30.5833 37.8323 31.0391 37.4937 31.4297C37.1604 31.8151 36.7568 32.1172 36.2828 32.3359C35.8141 32.5495 35.2828 32.6562 34.6891 32.6562C34.0953 32.6562 33.5615 32.5495 33.0875 32.3359C32.6135 32.1172 32.2073 31.8151 31.8687 31.4297C31.5354 31.0391 31.2802 30.5833 31.1031 30.0625C30.926 29.5417 30.8375 28.9766 30.8375 28.3672ZM32.2828 28.1875V28.3672C32.2828 28.7891 32.3323 29.1875 32.4312 29.5625C32.5302 29.9323 32.6786 30.2604 32.8766 30.5469C33.0797 30.8333 33.3323 31.0599 33.6344 31.2266C33.9365 31.388 34.288 31.4688 34.6891 31.4688C35.0849 31.4688 35.4312 31.388 35.7281 31.2266C36.0302 31.0599 36.2802 30.8333 36.4781 30.5469C36.676 30.2604 36.8245 29.9323 36.9234 29.5625C37.0276 29.1875 37.0797 28.7891 37.0797 28.3672V28.1875C37.0797 27.7708 37.0276 27.3776 36.9234 27.0078C36.8245 26.6328 36.6734 26.3021 36.4703 26.0156C36.2724 25.724 36.0224 25.4948 35.7203 25.3281C35.4234 25.1615 35.0745 25.0781 34.6734 25.0781C34.2776 25.0781 33.9286 25.1615 33.6266 25.3281C33.3297 25.4948 33.0797 25.724 32.8766 26.0156C32.6786 26.3021 32.5302 26.6328 32.4312 27.0078C32.3323 27.3776 32.2828 27.7708 32.2828 28.1875ZM41.9406 25.8516V32.5H40.4953V24.0469H41.8625L41.9406 25.8516ZM41.5969 27.9531L40.9953 27.9297C41.0005 27.3516 41.0865 26.8177 41.2531 26.3281C41.4198 25.8333 41.6542 25.4036 41.9562 25.0391C42.2583 24.6745 42.6177 24.3932 43.0344 24.1953C43.4562 23.9922 43.9224 23.8906 44.4328 23.8906C44.8495 23.8906 45.2245 23.9479 45.5578 24.0625C45.8911 24.1719 46.175 24.349 46.4094 24.5938C46.649 24.8385 46.8312 25.1562 46.9562 25.5469C47.0812 25.9323 47.1437 26.4036 47.1437 26.9609V32.5H45.6906V26.9453C45.6906 26.5026 45.6255 26.1484 45.4953 25.8828C45.3651 25.612 45.175 25.4167 44.925 25.2969C44.675 25.1719 44.3677 25.1094 44.0031 25.1094C43.6437 25.1094 43.3156 25.1849 43.0187 25.3359C42.7271 25.487 42.4745 25.6953 42.2609 25.9609C42.0526 26.2266 41.8885 26.5312 41.7687 26.875C41.6542 27.2135 41.5969 27.5729 41.5969 27.9531ZM53.0281 24.0469V25.1562H48.4578V24.0469H53.0281ZM50.0047 21.9922H51.45V30.4062C51.45 30.6927 51.4943 30.9089 51.5828 31.0547C51.6714 31.2005 51.7859 31.2969 51.9266 31.3438C52.0672 31.3906 52.2182 31.4141 52.3797 31.4141C52.4995 31.4141 52.6245 31.4036 52.7547 31.3828C52.8901 31.3568 52.9917 31.3359 53.0594 31.3203L53.0672 32.5C52.9526 32.5365 52.8016 32.5703 52.6141 32.6016C52.4318 32.638 52.2104 32.6562 51.95 32.6562C51.5958 32.6562 51.2703 32.5859 50.9734 32.4453C50.6766 32.3047 50.4396 32.0703 50.2625 31.7422C50.0906 31.4089 50.0047 30.9609 50.0047 30.3984V21.9922ZM56.3187 20.5V32.5H54.8734V20.5H56.3187ZM55.975 27.9531L55.3734 27.9297C55.3786 27.3516 55.4646 26.8177 55.6312 26.3281C55.7979 25.8333 56.0323 25.4036 56.3344 25.0391C56.6365 24.6745 56.9958 24.3932 57.4125 24.1953C57.8344 23.9922 58.3005 23.8906 58.8109 23.8906C59.2276 23.8906 59.6026 23.9479 59.9359 24.0625C60.2693 24.1719 60.5531 24.349 60.7875 24.5938C61.0271 24.8385 61.2094 25.1562 61.3344 25.5469C61.4594 25.9323 61.5219 26.4036 61.5219 26.9609V32.5H60.0687V26.9453C60.0687 26.5026 60.0036 26.1484 59.8734 25.8828C59.7432 25.612 59.5531 25.4167 59.3031 25.2969C59.0531 25.1719 58.7458 25.1094 58.3812 25.1094C58.0219 25.1094 57.6937 25.1849 57.3969 25.3359C57.1052 25.487 56.8526 25.6953 56.6391 25.9609C56.4307 26.2266 56.2667 26.5312 56.1469 26.875C56.0323 27.2135 55.975 27.5729 55.975 27.9531Z" fill="black" fill-opacity="0.6"/>
<path d="M167 25.5L172 30.5L177 25.5H167Z" fill="black"/>
<path d="M4 0.25H196C198.071 0.25 199.75 1.92893 199.75 4V54.75H0.25V4C0.25 1.92893 1.92893 0.25 4 0.25Z" stroke="#989898" stroke-width="0.5"/>
</svg>
