<svg width="200" height="55" viewBox="0 0 200 55" fill="none" xmlns="http://www.w3.org/2000/svg">
<path d="M17.8438 21.125L20.7969 26.8359L23.7578 21.125H25.4688L21.5469 28.25V32.5H20.0391V28.25L16.1172 21.125H17.8438ZM29.8531 32.6562C29.2646 32.6562 28.7307 32.5573 28.2516 32.3594C27.7776 32.1562 27.3687 31.8724 27.025 31.5078C26.6865 31.1432 26.426 30.7109 26.2437 30.2109C26.0615 29.7109 25.9703 29.1641 25.9703 28.5703V28.2422C25.9703 27.5547 26.0719 26.9427 26.275 26.4062C26.4781 25.8646 26.7542 25.4062 27.1031 25.0312C27.4521 24.6562 27.8479 24.3724 28.2906 24.1797C28.7333 23.987 29.1917 23.8906 29.6656 23.8906C30.2698 23.8906 30.7906 23.9948 31.2281 24.2031C31.6708 24.4115 32.0328 24.7031 32.3141 25.0781C32.5953 25.4479 32.8036 25.8854 32.9391 26.3906C33.0745 26.8906 33.1422 27.4375 33.1422 28.0312V28.6797H26.8297V27.5H31.6969V27.3906C31.676 27.0156 31.5979 26.651 31.4625 26.2969C31.3323 25.9427 31.124 25.651 30.8375 25.4219C30.551 25.1927 30.1604 25.0781 29.6656 25.0781C29.3375 25.0781 29.0354 25.1484 28.7594 25.2891C28.4833 25.4245 28.2464 25.6276 28.0484 25.8984C27.8505 26.1693 27.6969 26.5 27.5875 26.8906C27.4781 27.2812 27.4234 27.7318 27.4234 28.2422V28.5703C27.4234 28.9714 27.4781 29.349 27.5875 29.7031C27.7021 30.0521 27.8661 30.3594 28.0797 30.625C28.2984 30.8906 28.5615 31.099 28.8687 31.25C29.1812 31.401 29.5354 31.4766 29.9312 31.4766C30.4417 31.4766 30.874 31.3724 31.2281 31.1641C31.5823 30.9557 31.8922 30.6771 32.1578 30.3281L33.0328 31.0234C32.8505 31.2995 32.6187 31.5625 32.3375 31.8125C32.0562 32.0625 31.7099 32.2656 31.2984 32.4219C30.8922 32.5781 30.4104 32.6562 29.8531 32.6562ZM39.9641 31.0547V26.7031C39.9641 26.3698 39.8964 26.0807 39.7609 25.8359C39.6307 25.5859 39.4328 25.3932 39.1672 25.2578C38.9016 25.1224 38.5734 25.0547 38.1828 25.0547C37.8182 25.0547 37.4979 25.1172 37.2219 25.2422C36.951 25.3672 36.7375 25.5312 36.5812 25.7344C36.4302 25.9375 36.3547 26.1562 36.3547 26.3906H34.9094C34.9094 26.0885 34.9875 25.7891 35.1437 25.4922C35.3 25.1953 35.524 24.9271 35.8156 24.6875C36.1125 24.4427 36.4667 24.25 36.8781 24.1094C37.2948 23.9635 37.7583 23.8906 38.2687 23.8906C38.8833 23.8906 39.425 23.9948 39.8937 24.2031C40.3677 24.4115 40.7375 24.7266 41.0031 25.1484C41.274 25.5651 41.4094 26.0885 41.4094 26.7188V30.6562C41.4094 30.9375 41.4328 31.237 41.4797 31.5547C41.5318 31.8724 41.6073 32.1458 41.7062 32.375V32.5H40.1984C40.1255 32.3333 40.0682 32.112 40.0266 31.8359C39.9849 31.5547 39.9641 31.2943 39.9641 31.0547ZM40.2141 27.375L40.2297 28.3906H38.7687C38.3573 28.3906 37.9901 28.4245 37.6672 28.4922C37.3443 28.5547 37.0734 28.651 36.8547 28.7812C36.6359 28.9115 36.4693 29.0755 36.3547 29.2734C36.2401 29.4661 36.1828 29.6927 36.1828 29.9531C36.1828 30.2188 36.2427 30.4609 36.3625 30.6797C36.4823 30.8984 36.662 31.0729 36.9016 31.2031C37.1464 31.3281 37.4458 31.3906 37.8 31.3906C38.2427 31.3906 38.6333 31.2969 38.9719 31.1094C39.3104 30.9219 39.5786 30.6927 39.7766 30.4219C39.9797 30.151 40.0891 29.888 40.1047 29.6328L40.7219 30.3281C40.6854 30.5469 40.5865 30.7891 40.425 31.0547C40.2635 31.3203 40.0474 31.5755 39.7766 31.8203C39.5109 32.0599 39.1932 32.2604 38.8234 32.4219C38.4589 32.5781 38.0474 32.6562 37.5891 32.6562C37.0161 32.6562 36.5135 32.5443 36.0812 32.3203C35.6542 32.0964 35.3208 31.7969 35.0812 31.4219C34.8469 31.0417 34.7297 30.6172 34.7297 30.1484C34.7297 29.6953 34.8182 29.2969 34.9953 28.9531C35.1724 28.6042 35.4276 28.3151 35.7609 28.0859C36.0943 27.8516 36.4953 27.6745 36.9641 27.5547C37.4328 27.4349 37.9562 27.375 38.5344 27.375H40.2141ZM45.2781 25.375V32.5H43.8328V24.0469H45.2391L45.2781 25.375ZM47.9188 24L47.9109 25.3438C47.7911 25.3177 47.6766 25.3021 47.5672 25.2969C47.463 25.2865 47.3432 25.2812 47.2078 25.2812C46.8745 25.2812 46.5802 25.3333 46.325 25.4375C46.0698 25.5417 45.8536 25.6875 45.6766 25.875C45.4995 26.0625 45.3589 26.2865 45.2547 26.5469C45.1557 26.8021 45.0906 27.0833 45.0594 27.3906L44.6531 27.625C44.6531 27.1146 44.7026 26.6354 44.8016 26.1875C44.9057 25.7396 45.0646 25.3438 45.2781 25C45.4917 24.651 45.7625 24.3802 46.0906 24.1875C46.424 23.9896 46.8198 23.8906 47.2781 23.8906C47.3823 23.8906 47.5021 23.9036 47.6375 23.9297C47.7729 23.9505 47.8667 23.974 47.9188 24Z" fill="black" fill-opacity="0.6"/>
<path d="M167 25.5L172 30.5L177 25.5H167Z" fill="black"/>
<path d="M4 0.25H196C198.071 0.25 199.75 1.92893 199.75 4V54.75H0.25V4C0.25 1.92893 1.92893 0.25 4 0.25Z" stroke="#989898" stroke-width="0.5"/>
</svg>
