<svg width="200" height="55" viewBox="0 0 200 55" fill="none" xmlns="http://www.w3.org/2000/svg">
<path d="M17.3203 21.125H21.0859C21.9401 21.125 22.6615 21.2552 23.25 21.5156C23.8438 21.776 24.2943 22.1615 24.6016 22.6719C24.9141 23.1771 25.0703 23.7995 25.0703 24.5391C25.0703 25.0599 24.9635 25.5365 24.75 25.9688C24.5417 26.3958 24.2396 26.7604 23.8438 27.0625C23.4531 27.3594 22.9844 27.5807 22.4375 27.7266L22.0156 27.8906H18.4766L18.4609 26.6641H21.1328C21.6745 26.6641 22.125 26.5703 22.4844 26.3828C22.8438 26.1901 23.1146 25.9323 23.2969 25.6094C23.4792 25.2865 23.5703 24.9297 23.5703 24.5391C23.5703 24.1016 23.4844 23.7188 23.3125 23.3906C23.1406 23.0625 22.8698 22.8099 22.5 22.6328C22.1354 22.4505 21.6641 22.3594 21.0859 22.3594H18.8281V32.5H17.3203V21.125ZM23.9688 32.5L21.2031 27.3438L22.7734 27.3359L25.5781 32.4062V32.5H23.9688ZM32.0953 31.0547V26.7031C32.0953 26.3698 32.0276 26.0807 31.8922 25.8359C31.762 25.5859 31.5641 25.3932 31.2984 25.2578C31.0328 25.1224 30.7047 25.0547 30.3141 25.0547C29.9495 25.0547 29.6292 25.1172 29.3531 25.2422C29.0823 25.3672 28.8687 25.5312 28.7125 25.7344C28.5615 25.9375 28.4859 26.1562 28.4859 26.3906H27.0406C27.0406 26.0885 27.1187 25.7891 27.275 25.4922C27.4312 25.1953 27.6552 24.9271 27.9469 24.6875C28.2437 24.4427 28.5979 24.25 29.0094 24.1094C29.426 23.9635 29.8896 23.8906 30.4 23.8906C31.0146 23.8906 31.5562 23.9948 32.025 24.2031C32.499 24.4115 32.8687 24.7266 33.1344 25.1484C33.4052 25.5651 33.5406 26.0885 33.5406 26.7188V30.6562C33.5406 30.9375 33.5641 31.237 33.6109 31.5547C33.663 31.8724 33.7385 32.1458 33.8375 32.375V32.5H32.3297C32.2568 32.3333 32.1995 32.112 32.1578 31.8359C32.1161 31.5547 32.0953 31.2943 32.0953 31.0547ZM32.3453 27.375L32.3609 28.3906H30.9C30.4885 28.3906 30.1214 28.4245 29.7984 28.4922C29.4755 28.5547 29.2047 28.651 28.9859 28.7812C28.7672 28.9115 28.6005 29.0755 28.4859 29.2734C28.3714 29.4661 28.3141 29.6927 28.3141 29.9531C28.3141 30.2188 28.374 30.4609 28.4937 30.6797C28.6135 30.8984 28.7932 31.0729 29.0328 31.2031C29.2776 31.3281 29.5771 31.3906 29.9312 31.3906C30.374 31.3906 30.7646 31.2969 31.1031 31.1094C31.4417 30.9219 31.7099 30.6927 31.9078 30.4219C32.1109 30.151 32.2203 29.888 32.2359 29.6328L32.8531 30.3281C32.8167 30.5469 32.7177 30.7891 32.5562 31.0547C32.3948 31.3203 32.1786 31.5755 31.9078 31.8203C31.6422 32.0599 31.3245 32.2604 30.9547 32.4219C30.5901 32.5781 30.1786 32.6562 29.7203 32.6562C29.1474 32.6562 28.6448 32.5443 28.2125 32.3203C27.7854 32.0964 27.4521 31.7969 27.2125 31.4219C26.9781 31.0417 26.8609 30.6172 26.8609 30.1484C26.8609 29.6953 26.9495 29.2969 27.1266 28.9531C27.3036 28.6042 27.5589 28.3151 27.8922 28.0859C28.2255 27.8516 28.6266 27.6745 29.0953 27.5547C29.5641 27.4349 30.0875 27.375 30.6656 27.375H32.3453ZM39.3469 31.4688C39.6906 31.4688 40.0083 31.3984 40.3 31.2578C40.5917 31.1172 40.8312 30.9245 41.0187 30.6797C41.2062 30.4297 41.313 30.1458 41.3391 29.8281H42.7141C42.688 30.3281 42.5187 30.7943 42.2062 31.2266C41.899 31.6536 41.4953 32 40.9953 32.2656C40.4953 32.526 39.9458 32.6562 39.3469 32.6562C38.7115 32.6562 38.1568 32.5443 37.6828 32.3203C37.2141 32.0964 36.8234 31.7891 36.5109 31.3984C36.2036 31.0078 35.9719 30.5599 35.8156 30.0547C35.6646 29.5443 35.5891 29.0052 35.5891 28.4375V28.1094C35.5891 27.5417 35.6646 27.0052 35.8156 26.5C35.9719 25.9896 36.2036 25.5391 36.5109 25.1484C36.8234 24.7578 37.2141 24.4505 37.6828 24.2266C38.1568 24.0026 38.7115 23.8906 39.3469 23.8906C40.0083 23.8906 40.5865 24.026 41.0812 24.2969C41.576 24.5625 41.9641 24.9271 42.2453 25.3906C42.5318 25.849 42.688 26.3698 42.7141 26.9531H41.3391C41.313 26.6042 41.2141 26.2891 41.0422 26.0078C40.8755 25.7266 40.6464 25.5026 40.3547 25.3359C40.0682 25.1641 39.7323 25.0781 39.3469 25.0781C38.9042 25.0781 38.5318 25.1667 38.2297 25.3438C37.9328 25.5156 37.6958 25.75 37.5187 26.0469C37.3469 26.3385 37.2219 26.6641 37.1437 27.0234C37.0708 27.3776 37.0344 27.7396 37.0344 28.1094V28.4375C37.0344 28.8073 37.0708 29.1719 37.1437 29.5312C37.2167 29.8906 37.3391 30.2161 37.5109 30.5078C37.688 30.7995 37.925 31.0339 38.2219 31.2109C38.524 31.3828 38.899 31.4688 39.3469 31.4688ZM45.9422 20.5V32.5H44.4891V20.5H45.9422ZM51.1063 24.0469L47.4188 27.9922L45.3563 30.1328L45.2391 28.5938L46.7156 26.8281L49.3406 24.0469H51.1063ZM49.7859 32.5L46.7703 28.4688L47.5203 27.1797L51.4891 32.5H49.7859Z" fill="black" fill-opacity="0.6"/>
<path d="M167 25.5L172 30.5L177 25.5H167Z" fill="black"/>
<path d="M0.25 4C0.25 1.92893 1.92893 0.25 4 0.25H196C198.071 0.25 199.75 1.92893 199.75 4V54.75H0.25V4Z" stroke="#989898" stroke-width="0.5"/>
</svg>
