<svg width="19" height="18" viewBox="0 0 19 18" fill="none" xmlns="http://www.w3.org/2000/svg">
<g clip-path="url(#clip0_63_3106)">
<path d="M0.746094 2C0.746094 0.89543 1.64152 0 2.74609 0H16.7461C17.8507 0 18.7461 0.895431 18.7461 2V16C18.7461 17.1046 17.8507 18 16.7461 18H2.74609C1.64152 18 0.746094 17.1046 0.746094 16V2Z" fill="#6200EE"/>
<path d="M7.3424 11.9062L4.2149 8.77869L3.1499 9.83619L7.3424 14.0287L16.3424 5.02869L15.2849 3.97119L7.3424 11.9062Z" fill="white"/>
</g>
<path d="M1.74609 2C1.74609 1.44772 2.19381 1 2.74609 1H16.7461C17.2984 1 17.7461 1.44772 17.7461 2V16C17.7461 16.5523 17.2984 17 16.7461 17H2.74609C2.19381 17 1.74609 16.5523 1.74609 16V2Z" stroke="#6200EE" stroke-width="2"/>
<defs>
<clipPath id="clip0_63_3106">
<path d="M0.746094 2C0.746094 0.89543 1.64152 0 2.74609 0H16.7461C17.8507 0 18.7461 0.895431 18.7461 2V16C18.7461 17.1046 17.8507 18 16.7461 18H2.74609C1.64152 18 0.746094 17.1046 0.746094 16V2Z" fill="white"/>
</clipPath>
</defs>
</svg>
