<svg width="112" height="29" viewBox="0 0 112 29" fill="none" xmlns="http://www.w3.org/2000/svg">
<path d="M20.3984 19.5H18.0234L18.0391 18.2734H20.3984C21.2109 18.2734 21.888 18.1042 22.4297 17.7656C22.9714 17.4219 23.3776 16.9427 23.6484 16.3281C23.9245 15.7083 24.0625 14.9844 24.0625 14.1562V13.4609C24.0625 12.8099 23.9844 12.2318 23.8281 11.7266C23.6719 11.2161 23.4427 10.7865 23.1406 10.4375C22.8385 10.0833 22.4688 9.8151 22.0312 9.63281C21.599 9.45052 21.1016 9.35938 20.5391 9.35938H17.9766V8.125H20.5391C21.2839 8.125 21.9635 8.25 22.5781 8.5C23.1927 8.74479 23.7214 9.10156 24.1641 9.57031C24.612 10.0339 24.9557 10.5964 25.1953 11.2578C25.4349 11.9141 25.5547 12.6536 25.5547 13.4766V14.1562C25.5547 14.9792 25.4349 15.7214 25.1953 16.3828C24.9557 17.0391 24.6094 17.599 24.1562 18.0625C23.7083 18.526 23.1667 18.8828 22.5312 19.1328C21.901 19.3776 21.1901 19.5 20.3984 19.5ZM18.8281 8.125V19.5H17.3203V8.125H18.8281ZM32.7359 18.0547V13.7031C32.7359 13.3698 32.6682 13.0807 32.5328 12.8359C32.4026 12.5859 32.2047 12.3932 31.9391 12.2578C31.6734 12.1224 31.3453 12.0547 30.9547 12.0547C30.5901 12.0547 30.2698 12.1172 29.9937 12.2422C29.7229 12.3672 29.5094 12.5312 29.3531 12.7344C29.2021 12.9375 29.1266 13.1562 29.1266 13.3906H27.6812C27.6812 13.0885 27.7594 12.7891 27.9156 12.4922C28.0719 12.1953 28.2958 11.9271 28.5875 11.6875C28.8844 11.4427 29.2385 11.25 29.65 11.1094C30.0667 10.9635 30.5302 10.8906 31.0406 10.8906C31.6552 10.8906 32.1969 10.9948 32.6656 11.2031C33.1396 11.4115 33.5094 11.7266 33.775 12.1484C34.0458 12.5651 34.1812 13.0885 34.1812 13.7188V17.6562C34.1812 17.9375 34.2047 18.237 34.2516 18.5547C34.3036 18.8724 34.3792 19.1458 34.4781 19.375V19.5H32.9703C32.8974 19.3333 32.8401 19.112 32.7984 18.8359C32.7568 18.5547 32.7359 18.2943 32.7359 18.0547ZM32.9859 14.375L33.0016 15.3906H31.5406C31.1292 15.3906 30.762 15.4245 30.4391 15.4922C30.1161 15.5547 29.8453 15.651 29.6266 15.7812C29.4078 15.9115 29.2411 16.0755 29.1266 16.2734C29.012 16.4661 28.9547 16.6927 28.9547 16.9531C28.9547 17.2188 29.0146 17.4609 29.1344 17.6797C29.2542 17.8984 29.4339 18.0729 29.6734 18.2031C29.9182 18.3281 30.2177 18.3906 30.5719 18.3906C31.0146 18.3906 31.4052 18.2969 31.7437 18.1094C32.0823 17.9219 32.3505 17.6927 32.5484 17.4219C32.7516 17.151 32.8609 16.888 32.8766 16.6328L33.4937 17.3281C33.4573 17.5469 33.3583 17.7891 33.1969 18.0547C33.0354 18.3203 32.8193 18.5755 32.5484 18.8203C32.2828 19.0599 31.9651 19.2604 31.5953 19.4219C31.2307 19.5781 30.8193 19.6562 30.3609 19.6562C29.788 19.6562 29.2854 19.5443 28.8531 19.3203C28.426 19.0964 28.0927 18.7969 27.8531 18.4219C27.6187 18.0417 27.5016 17.6172 27.5016 17.1484C27.5016 16.6953 27.5901 16.2969 27.7672 15.9531C27.9443 15.6042 28.1995 15.3151 28.5328 15.0859C28.8661 14.8516 29.2672 14.6745 29.7359 14.5547C30.2047 14.4349 30.7281 14.375 31.3062 14.375H32.9859ZM38.8547 18.625L41.2062 11.0469H42.7531L39.3625 20.8047C39.2844 21.013 39.1802 21.237 39.05 21.4766C38.925 21.7214 38.7635 21.9531 38.5656 22.1719C38.3677 22.3906 38.1281 22.5677 37.8469 22.7031C37.5708 22.8438 37.2401 22.9141 36.8547 22.9141C36.7401 22.9141 36.5943 22.8984 36.4172 22.8672C36.2401 22.8359 36.1151 22.8099 36.0422 22.7891L36.0344 21.6172C36.076 21.6224 36.1411 21.6276 36.2297 21.6328C36.3234 21.6432 36.3885 21.6484 36.425 21.6484C36.7531 21.6484 37.0318 21.6042 37.2609 21.5156C37.4901 21.4323 37.6828 21.2891 37.8391 21.0859C38.0005 20.888 38.1385 20.6146 38.2531 20.2656L38.8547 18.625ZM37.1281 11.0469L39.3234 17.6094L39.6984 19.1328L38.6594 19.6641L35.55 11.0469H37.1281Z" fill="black" fill-opacity="0.6"/>
<path d="M79 12.5L84 17.5L89 12.5H79Z" fill="black"/>
<path d="M4 0.25H108C110.071 0.25 111.75 1.92893 111.75 4V28.75H0.25V4C0.25 1.92893 1.92893 0.25 4 0.25Z" stroke="#989898" stroke-width="0.5"/>
</svg>
