<svg width="112" height="29" viewBox="0 0 112 29" fill="none" xmlns="http://www.w3.org/2000/svg">
<path d="M17.8438 8.125L20.7969 13.8359L23.7578 8.125H25.4688L21.5469 15.25V19.5H20.0391V15.25L16.1172 8.125H17.8438ZM29.8531 19.6562C29.2646 19.6562 28.7307 19.5573 28.2516 19.3594C27.7776 19.1562 27.3687 18.8724 27.025 18.5078C26.6865 18.1432 26.426 17.7109 26.2437 17.2109C26.0615 16.7109 25.9703 16.1641 25.9703 15.5703V15.2422C25.9703 14.5547 26.0719 13.9427 26.275 13.4062C26.4781 12.8646 26.7542 12.4062 27.1031 12.0312C27.4521 11.6562 27.8479 11.3724 28.2906 11.1797C28.7333 10.987 29.1917 10.8906 29.6656 10.8906C30.2698 10.8906 30.7906 10.9948 31.2281 11.2031C31.6708 11.4115 32.0328 11.7031 32.3141 12.0781C32.5953 12.4479 32.8036 12.8854 32.9391 13.3906C33.0745 13.8906 33.1422 14.4375 33.1422 15.0312V15.6797H26.8297V14.5H31.6969V14.3906C31.676 14.0156 31.5979 13.651 31.4625 13.2969C31.3323 12.9427 31.124 12.651 30.8375 12.4219C30.551 12.1927 30.1604 12.0781 29.6656 12.0781C29.3375 12.0781 29.0354 12.1484 28.7594 12.2891C28.4833 12.4245 28.2464 12.6276 28.0484 12.8984C27.8505 13.1693 27.6969 13.5 27.5875 13.8906C27.4781 14.2812 27.4234 14.7318 27.4234 15.2422V15.5703C27.4234 15.9714 27.4781 16.349 27.5875 16.7031C27.7021 17.0521 27.8661 17.3594 28.0797 17.625C28.2984 17.8906 28.5615 18.099 28.8687 18.25C29.1812 18.401 29.5354 18.4766 29.9312 18.4766C30.4417 18.4766 30.874 18.3724 31.2281 18.1641C31.5823 17.9557 31.8922 17.6771 32.1578 17.3281L33.0328 18.0234C32.8505 18.2995 32.6187 18.5625 32.3375 18.8125C32.0562 19.0625 31.7099 19.2656 31.2984 19.4219C30.8922 19.5781 30.4104 19.6562 29.8531 19.6562ZM39.9641 18.0547V13.7031C39.9641 13.3698 39.8964 13.0807 39.7609 12.8359C39.6307 12.5859 39.4328 12.3932 39.1672 12.2578C38.9016 12.1224 38.5734 12.0547 38.1828 12.0547C37.8182 12.0547 37.4979 12.1172 37.2219 12.2422C36.951 12.3672 36.7375 12.5312 36.5812 12.7344C36.4302 12.9375 36.3547 13.1562 36.3547 13.3906H34.9094C34.9094 13.0885 34.9875 12.7891 35.1437 12.4922C35.3 12.1953 35.524 11.9271 35.8156 11.6875C36.1125 11.4427 36.4667 11.25 36.8781 11.1094C37.2948 10.9635 37.7583 10.8906 38.2687 10.8906C38.8833 10.8906 39.425 10.9948 39.8937 11.2031C40.3677 11.4115 40.7375 11.7266 41.0031 12.1484C41.274 12.5651 41.4094 13.0885 41.4094 13.7188V17.6562C41.4094 17.9375 41.4328 18.237 41.4797 18.5547C41.5318 18.8724 41.6073 19.1458 41.7062 19.375V19.5H40.1984C40.1255 19.3333 40.0682 19.112 40.0266 18.8359C39.9849 18.5547 39.9641 18.2943 39.9641 18.0547ZM40.2141 14.375L40.2297 15.3906H38.7687C38.3573 15.3906 37.9901 15.4245 37.6672 15.4922C37.3443 15.5547 37.0734 15.651 36.8547 15.7812C36.6359 15.9115 36.4693 16.0755 36.3547 16.2734C36.2401 16.4661 36.1828 16.6927 36.1828 16.9531C36.1828 17.2188 36.2427 17.4609 36.3625 17.6797C36.4823 17.8984 36.662 18.0729 36.9016 18.2031C37.1464 18.3281 37.4458 18.3906 37.8 18.3906C38.2427 18.3906 38.6333 18.2969 38.9719 18.1094C39.3104 17.9219 39.5786 17.6927 39.7766 17.4219C39.9797 17.151 40.0891 16.888 40.1047 16.6328L40.7219 17.3281C40.6854 17.5469 40.5865 17.7891 40.425 18.0547C40.2635 18.3203 40.0474 18.5755 39.7766 18.8203C39.5109 19.0599 39.1932 19.2604 38.8234 19.4219C38.4589 19.5781 38.0474 19.6562 37.5891 19.6562C37.0161 19.6562 36.5135 19.5443 36.0812 19.3203C35.6542 19.0964 35.3208 18.7969 35.0812 18.4219C34.8469 18.0417 34.7297 17.6172 34.7297 17.1484C34.7297 16.6953 34.8182 16.2969 34.9953 15.9531C35.1724 15.6042 35.4276 15.3151 35.7609 15.0859C36.0943 14.8516 36.4953 14.6745 36.9641 14.5547C37.4328 14.4349 37.9562 14.375 38.5344 14.375H40.2141ZM45.2781 12.375V19.5H43.8328V11.0469H45.2391L45.2781 12.375ZM47.9188 11L47.9109 12.3438C47.7911 12.3177 47.6766 12.3021 47.5672 12.2969C47.463 12.2865 47.3432 12.2812 47.2078 12.2812C46.8745 12.2812 46.5802 12.3333 46.325 12.4375C46.0698 12.5417 45.8536 12.6875 45.6766 12.875C45.4995 13.0625 45.3589 13.2865 45.2547 13.5469C45.1557 13.8021 45.0906 14.0833 45.0594 14.3906L44.6531 14.625C44.6531 14.1146 44.7026 13.6354 44.8016 13.1875C44.9057 12.7396 45.0646 12.3438 45.2781 12C45.4917 11.651 45.7625 11.3802 46.0906 11.1875C46.424 10.9896 46.8198 10.8906 47.2781 10.8906C47.3823 10.8906 47.5021 10.9036 47.6375 10.9297C47.7729 10.9505 47.8667 10.974 47.9188 11Z" fill="black" fill-opacity="0.6"/>
<path d="M79 12.5L84 17.5L89 12.5H79Z" fill="black"/>
<path d="M0.25 4C0.25 1.92893 1.92893 0.25 4 0.25H108C110.071 0.25 111.75 1.92893 111.75 4V28.75H0.25V4Z" stroke="#989898" stroke-width="0.5"/>
</svg>
