<svg width="200" height="55" viewBox="0 0 200 55" fill="none" xmlns="http://www.w3.org/2000/svg">
<path d="M21.375 27.1797H18.4922L18.4766 25.9688H21.0938C21.526 25.9688 21.9036 25.8958 22.2266 25.75C22.5495 25.6042 22.7995 25.3958 22.9766 25.125C23.1589 24.849 23.25 24.5208 23.25 24.1406C23.25 23.724 23.1693 23.3854 23.0078 23.125C22.8516 22.8594 22.6094 22.6667 22.2812 22.5469C21.9583 22.4219 21.5469 22.3594 21.0469 22.3594H18.8281V32.5H17.3203V21.125H21.0469C21.6302 21.125 22.151 21.1849 22.6094 21.3047C23.0677 21.4193 23.4557 21.6016 23.7734 21.8516C24.0964 22.0964 24.3411 22.4089 24.5078 22.7891C24.6745 23.1693 24.7578 23.625 24.7578 24.1562C24.7578 24.625 24.638 25.0495 24.3984 25.4297C24.1589 25.8047 23.8255 26.112 23.3984 26.3516C22.9766 26.5911 22.4818 26.7448 21.9141 26.8125L21.375 27.1797ZM21.3047 32.5H17.8984L18.75 31.2734H21.3047C21.7839 31.2734 22.1901 31.1901 22.5234 31.0234C22.862 30.8568 23.1198 30.6224 23.2969 30.3203C23.474 30.013 23.5625 29.651 23.5625 29.2344C23.5625 28.8125 23.487 28.4479 23.3359 28.1406C23.1849 27.8333 22.9479 27.5964 22.625 27.4297C22.3021 27.263 21.8854 27.1797 21.375 27.1797H19.2266L19.2422 25.9688H22.1797L22.5 26.4062C23.0469 26.4531 23.5104 26.6094 23.8906 26.875C24.2708 27.1354 24.5599 27.4688 24.7578 27.875C24.9609 28.2812 25.0625 28.7292 25.0625 29.2188C25.0625 29.9271 24.9062 30.526 24.5938 31.0156C24.2865 31.5 23.8516 31.8698 23.2891 32.125C22.7266 32.375 22.0651 32.5 21.3047 32.5ZM32.2047 31.0547V26.7031C32.2047 26.3698 32.137 26.0807 32.0016 25.8359C31.8714 25.5859 31.6734 25.3932 31.4078 25.2578C31.1422 25.1224 30.8141 25.0547 30.4234 25.0547C30.0589 25.0547 29.7385 25.1172 29.4625 25.2422C29.1917 25.3672 28.9781 25.5312 28.8219 25.7344C28.6708 25.9375 28.5953 26.1562 28.5953 26.3906H27.15C27.15 26.0885 27.2281 25.7891 27.3844 25.4922C27.5406 25.1953 27.7646 24.9271 28.0562 24.6875C28.3531 24.4427 28.7073 24.25 29.1187 24.1094C29.5354 23.9635 29.999 23.8906 30.5094 23.8906C31.124 23.8906 31.6656 23.9948 32.1344 24.2031C32.6083 24.4115 32.9781 24.7266 33.2437 25.1484C33.5146 25.5651 33.65 26.0885 33.65 26.7188V30.6562C33.65 30.9375 33.6734 31.237 33.7203 31.5547C33.7724 31.8724 33.8479 32.1458 33.9469 32.375V32.5H32.4391C32.3661 32.3333 32.3089 32.112 32.2672 31.8359C32.2255 31.5547 32.2047 31.2943 32.2047 31.0547ZM32.4547 27.375L32.4703 28.3906H31.0094C30.5979 28.3906 30.2307 28.4245 29.9078 28.4922C29.5849 28.5547 29.3141 28.651 29.0953 28.7812C28.8766 28.9115 28.7099 29.0755 28.5953 29.2734C28.4807 29.4661 28.4234 29.6927 28.4234 29.9531C28.4234 30.2188 28.4833 30.4609 28.6031 30.6797C28.7229 30.8984 28.9026 31.0729 29.1422 31.2031C29.387 31.3281 29.6865 31.3906 30.0406 31.3906C30.4833 31.3906 30.874 31.2969 31.2125 31.1094C31.551 30.9219 31.8193 30.6927 32.0172 30.4219C32.2203 30.151 32.3297 29.888 32.3453 29.6328L32.9625 30.3281C32.926 30.5469 32.8271 30.7891 32.6656 31.0547C32.5042 31.3203 32.288 31.5755 32.0172 31.8203C31.7516 32.0599 31.4339 32.2604 31.0641 32.4219C30.6995 32.5781 30.288 32.6562 29.8297 32.6562C29.2568 32.6562 28.7542 32.5443 28.3219 32.3203C27.8948 32.0964 27.5615 31.7969 27.3219 31.4219C27.0875 31.0417 26.9703 30.6172 26.9703 30.1484C26.9703 29.6953 27.0589 29.2969 27.2359 28.9531C27.413 28.6042 27.6682 28.3151 28.0016 28.0859C28.3349 27.8516 28.7359 27.6745 29.2047 27.5547C29.6734 27.4349 30.1969 27.375 30.775 27.375H32.4547ZM37.5187 25.8516V32.5H36.0734V24.0469H37.4406L37.5187 25.8516ZM37.175 27.9531L36.5734 27.9297C36.5786 27.3516 36.6646 26.8177 36.8312 26.3281C36.9979 25.8333 37.2323 25.4036 37.5344 25.0391C37.8365 24.6745 38.1958 24.3932 38.6125 24.1953C39.0344 23.9922 39.5005 23.8906 40.0109 23.8906C40.4276 23.8906 40.8026 23.9479 41.1359 24.0625C41.4693 24.1719 41.7531 24.349 41.9875 24.5938C42.2271 24.8385 42.4094 25.1562 42.5344 25.5469C42.6594 25.9323 42.7219 26.4036 42.7219 26.9609V32.5H41.2687V26.9453C41.2687 26.5026 41.2036 26.1484 41.0734 25.8828C40.9432 25.612 40.7531 25.4167 40.5031 25.2969C40.2531 25.1719 39.9458 25.1094 39.5812 25.1094C39.2219 25.1094 38.8937 25.1849 38.5969 25.3359C38.3052 25.487 38.0526 25.6953 37.8391 25.9609C37.6307 26.2266 37.4667 26.5312 37.3469 26.875C37.2323 27.2135 37.175 27.5729 37.175 27.9531ZM46.5203 20.5V32.5H45.0672V20.5H46.5203ZM51.6844 24.0469L47.9969 27.9922L45.9344 30.1328L45.8172 28.5938L47.2938 26.8281L49.9188 24.0469H51.6844ZM50.3641 32.5L47.3484 28.4688L48.0984 27.1797L52.0672 32.5H50.3641Z" fill="black" fill-opacity="0.6"/>
<path d="M167 25.5L172 30.5L177 25.5H167Z" fill="black"/>
<path d="M0.25 4C0.25 1.92893 1.92893 0.25 4 0.25H196C198.071 0.25 199.75 1.92893 199.75 4V54.75H0.25V4Z" stroke="#989898" stroke-width="0.5"/>
</svg>
