<svg width="19" height="18" viewBox="0 0 19 18" fill="none" xmlns="http://www.w3.org/2000/svg">
<g clip-path="url(#clip0_63_3112)">
<path d="M0.210938 2C0.210938 0.89543 1.10637 0 2.21094 0H16.2109C17.3155 0 18.2109 0.895431 18.2109 2V16C18.2109 17.1046 17.3155 18 16.2109 18H2.21094C1.10637 18 0.210938 17.1046 0.210938 16V2Z" fill="#6200EE"/>
<path d="M6.80725 11.9062L3.67975 8.77869L2.61475 9.83619L6.80725 14.0287L15.8072 5.02869L14.7497 3.97119L6.80725 11.9062Z" fill="white"/>
</g>
<path d="M2.21094 1H16.2109C16.7632 1 17.2109 1.44772 17.2109 2V16C17.2109 16.5523 16.7632 17 16.2109 17H2.21094C1.65865 17 1.21094 16.5523 1.21094 16V2C1.21094 1.44772 1.65865 1 2.21094 1Z" stroke="#6200EE" stroke-width="2"/>
<defs>
<clipPath id="clip0_63_3112">
<path d="M0.210938 2C0.210938 0.89543 1.10637 0 2.21094 0H16.2109C17.3155 0 18.2109 0.895431 18.2109 2V16C18.2109 17.1046 17.3155 18 16.2109 18H2.21094C1.10637 18 0.210938 17.1046 0.210938 16V2Z" fill="white"/>
</clipPath>
</defs>
</svg>
