<svg width="200" height="55" viewBox="0 0 200 55" fill="none" xmlns="http://www.w3.org/2000/svg">
<path d="M0.25 4C0.25 1.92893 1.92893 0.25 4 0.25H196C198.071 0.25 199.75 1.92893 199.75 4V54.75H0.25V4Z" fill="white"/>
<path d="M24.2188 31.2734V32.5H18.5312V31.2734H24.2188ZM18.8281 21.125V32.5H17.3203V21.125H18.8281ZM25.4937 28.3672V28.1875C25.4937 27.5781 25.5823 27.013 25.7594 26.4922C25.9365 25.9661 26.1917 25.5104 26.525 25.125C26.8583 24.7344 27.262 24.4323 27.7359 24.2188C28.2099 24 28.7411 23.8906 29.3297 23.8906C29.9234 23.8906 30.4573 24 30.9312 24.2188C31.4104 24.4323 31.8167 24.7344 32.15 25.125C32.4885 25.5104 32.7464 25.9661 32.9234 26.4922C33.1005 27.013 33.1891 27.5781 33.1891 28.1875V28.3672C33.1891 28.9766 33.1005 29.5417 32.9234 30.0625C32.7464 30.5833 32.4885 31.0391 32.15 31.4297C31.8167 31.8151 31.413 32.1172 30.9391 32.3359C30.4703 32.5495 29.9391 32.6562 29.3453 32.6562C28.7516 32.6562 28.2177 32.5495 27.7437 32.3359C27.2698 32.1172 26.8635 31.8151 26.525 31.4297C26.1917 31.0391 25.9365 30.5833 25.7594 30.0625C25.5823 29.5417 25.4937 28.9766 25.4937 28.3672ZM26.9391 28.1875V28.3672C26.9391 28.7891 26.9885 29.1875 27.0875 29.5625C27.1865 29.9323 27.3349 30.2604 27.5328 30.5469C27.7359 30.8333 27.9885 31.0599 28.2906 31.2266C28.5927 31.388 28.9443 31.4688 29.3453 31.4688C29.7411 31.4688 30.0875 31.388 30.3844 31.2266C30.6865 31.0599 30.9365 30.8333 31.1344 30.5469C31.3323 30.2604 31.4807 29.9323 31.5797 29.5625C31.6839 29.1875 31.7359 28.7891 31.7359 28.3672V28.1875C31.7359 27.7708 31.6839 27.3776 31.5797 27.0078C31.4807 26.6328 31.3297 26.3021 31.1266 26.0156C30.9286 25.724 30.6786 25.4948 30.3766 25.3281C30.0797 25.1615 29.7307 25.0781 29.3297 25.0781C28.9339 25.0781 28.5849 25.1615 28.2828 25.3281C27.9859 25.4948 27.7359 25.724 27.5328 26.0156C27.3349 26.3021 27.1865 26.6328 27.0875 27.0078C26.9885 27.3776 26.9391 27.7708 26.9391 28.1875ZM38.5344 31.4688C38.8781 31.4688 39.1958 31.3984 39.4875 31.2578C39.7792 31.1172 40.0187 30.9245 40.2062 30.6797C40.3937 30.4297 40.5005 30.1458 40.5266 29.8281H41.9016C41.8755 30.3281 41.7062 30.7943 41.3937 31.2266C41.0865 31.6536 40.6828 32 40.1828 32.2656C39.6828 32.526 39.1333 32.6562 38.5344 32.6562C37.899 32.6562 37.3443 32.5443 36.8703 32.3203C36.4016 32.0964 36.0109 31.7891 35.6984 31.3984C35.3911 31.0078 35.1594 30.5599 35.0031 30.0547C34.8521 29.5443 34.7766 29.0052 34.7766 28.4375V28.1094C34.7766 27.5417 34.8521 27.0052 35.0031 26.5C35.1594 25.9896 35.3911 25.5391 35.6984 25.1484C36.0109 24.7578 36.4016 24.4505 36.8703 24.2266C37.3443 24.0026 37.899 23.8906 38.5344 23.8906C39.1958 23.8906 39.774 24.026 40.2687 24.2969C40.7635 24.5625 41.1516 24.9271 41.4328 25.3906C41.7193 25.849 41.8755 26.3698 41.9016 26.9531H40.5266C40.5005 26.6042 40.4016 26.2891 40.2297 26.0078C40.063 25.7266 39.8339 25.5026 39.5422 25.3359C39.2557 25.1641 38.9198 25.0781 38.5344 25.0781C38.0917 25.0781 37.7193 25.1667 37.4172 25.3438C37.1203 25.5156 36.8833 25.75 36.7062 26.0469C36.5344 26.3385 36.4094 26.6641 36.3312 27.0234C36.2583 27.3776 36.2219 27.7396 36.2219 28.1094V28.4375C36.2219 28.8073 36.2583 29.1719 36.3312 29.5312C36.4042 29.8906 36.5266 30.2161 36.6984 30.5078C36.8755 30.7995 37.1125 31.0339 37.4094 31.2109C37.7115 31.3828 38.0865 31.4688 38.5344 31.4688ZM48.6609 31.0547V26.7031C48.6609 26.3698 48.5932 26.0807 48.4578 25.8359C48.3276 25.5859 48.1297 25.3932 47.8641 25.2578C47.5984 25.1224 47.2703 25.0547 46.8797 25.0547C46.5151 25.0547 46.1948 25.1172 45.9188 25.2422C45.6479 25.3672 45.4344 25.5312 45.2781 25.7344C45.1271 25.9375 45.0516 26.1562 45.0516 26.3906H43.6063C43.6063 26.0885 43.6844 25.7891 43.8406 25.4922C43.9969 25.1953 44.2208 24.9271 44.5125 24.6875C44.8094 24.4427 45.1635 24.25 45.575 24.1094C45.9917 23.9635 46.4552 23.8906 46.9656 23.8906C47.5802 23.8906 48.1219 23.9948 48.5906 24.2031C49.0646 24.4115 49.4344 24.7266 49.7 25.1484C49.9708 25.5651 50.1063 26.0885 50.1063 26.7188V30.6562C50.1063 30.9375 50.1297 31.237 50.1766 31.5547C50.2286 31.8724 50.3042 32.1458 50.4031 32.375V32.5H48.8953C48.8224 32.3333 48.7651 32.112 48.7234 31.8359C48.6818 31.5547 48.6609 31.2943 48.6609 31.0547ZM48.9109 27.375L48.9266 28.3906H47.4656C47.0542 28.3906 46.687 28.4245 46.3641 28.4922C46.0411 28.5547 45.7703 28.651 45.5516 28.7812C45.3328 28.9115 45.1661 29.0755 45.0516 29.2734C44.937 29.4661 44.8797 29.6927 44.8797 29.9531C44.8797 30.2188 44.9396 30.4609 45.0594 30.6797C45.1792 30.8984 45.3589 31.0729 45.5984 31.2031C45.8432 31.3281 46.1427 31.3906 46.4969 31.3906C46.9396 31.3906 47.3302 31.2969 47.6688 31.1094C48.0073 30.9219 48.2755 30.6927 48.4734 30.4219C48.6766 30.151 48.7859 29.888 48.8016 29.6328L49.4188 30.3281C49.3823 30.5469 49.2833 30.7891 49.1219 31.0547C48.9604 31.3203 48.7443 31.5755 48.4734 31.8203C48.2078 32.0599 47.8901 32.2604 47.5203 32.4219C47.1557 32.5781 46.7443 32.6562 46.2859 32.6562C45.713 32.6562 45.2104 32.5443 44.7781 32.3203C44.351 32.0964 44.0177 31.7969 43.7781 31.4219C43.5438 31.0417 43.4266 30.6172 43.4266 30.1484C43.4266 29.6953 43.5151 29.2969 43.6922 28.9531C43.8693 28.6042 44.1245 28.3151 44.4578 28.0859C44.7911 27.8516 45.1922 27.6745 45.6609 27.5547C46.1297 27.4349 46.6531 27.375 47.2313 27.375H48.9109ZM56.0687 24.0469V25.1562H51.4984V24.0469H56.0687ZM53.0453 21.9922H54.4906V30.4062C54.4906 30.6927 54.5349 30.9089 54.6234 31.0547C54.712 31.2005 54.8266 31.2969 54.9672 31.3438C55.1078 31.3906 55.2589 31.4141 55.4203 31.4141C55.5401 31.4141 55.6651 31.4036 55.7953 31.3828C55.9307 31.3568 56.0323 31.3359 56.1 31.3203L56.1078 32.5C55.9932 32.5365 55.8422 32.5703 55.6547 32.6016C55.4724 32.638 55.251 32.6562 54.9906 32.6562C54.6365 32.6562 54.3109 32.5859 54.0141 32.4453C53.7172 32.3047 53.4802 32.0703 53.3031 31.7422C53.1312 31.4089 53.0453 30.9609 53.0453 30.3984V21.9922ZM59.4844 24.0469V32.5H58.0312V24.0469H59.4844ZM57.9219 21.8047C57.9219 21.5703 57.9922 21.3724 58.1328 21.2109C58.2786 21.0495 58.4922 20.9688 58.7734 20.9688C59.0495 20.9688 59.2604 21.0495 59.4062 21.2109C59.5573 21.3724 59.6328 21.5703 59.6328 21.8047C59.6328 22.0286 59.5573 22.2214 59.4062 22.3828C59.2604 22.5391 59.0495 22.6172 58.7734 22.6172C58.4922 22.6172 58.2786 22.5391 58.1328 22.3828C57.9922 22.2214 57.9219 22.0286 57.9219 21.8047ZM61.5719 28.3672V28.1875C61.5719 27.5781 61.6604 27.013 61.8375 26.4922C62.0146 25.9661 62.2698 25.5104 62.6031 25.125C62.9365 24.7344 63.3401 24.4323 63.8141 24.2188C64.288 24 64.8193 23.8906 65.4078 23.8906C66.0016 23.8906 66.5354 24 67.0094 24.2188C67.4885 24.4323 67.8948 24.7344 68.2281 25.125C68.5667 25.5104 68.8245 25.9661 69.0016 26.4922C69.1786 27.013 69.2672 27.5781 69.2672 28.1875V28.3672C69.2672 28.9766 69.1786 29.5417 69.0016 30.0625C68.8245 30.5833 68.5667 31.0391 68.2281 31.4297C67.8948 31.8151 67.4911 32.1172 67.0172 32.3359C66.5484 32.5495 66.0172 32.6562 65.4234 32.6562C64.8297 32.6562 64.2958 32.5495 63.8219 32.3359C63.3479 32.1172 62.9417 31.8151 62.6031 31.4297C62.2698 31.0391 62.0146 30.5833 61.8375 30.0625C61.6604 29.5417 61.5719 28.9766 61.5719 28.3672ZM63.0172 28.1875V28.3672C63.0172 28.7891 63.0667 29.1875 63.1656 29.5625C63.2646 29.9323 63.413 30.2604 63.6109 30.5469C63.8141 30.8333 64.0667 31.0599 64.3688 31.2266C64.6708 31.388 65.0224 31.4688 65.4234 31.4688C65.8193 31.4688 66.1656 31.388 66.4625 31.2266C66.7646 31.0599 67.0146 30.8333 67.2125 30.5469C67.4104 30.2604 67.5589 29.9323 67.6578 29.5625C67.762 29.1875 67.8141 28.7891 67.8141 28.3672V28.1875C67.8141 27.7708 67.762 27.3776 67.6578 27.0078C67.5589 26.6328 67.4078 26.3021 67.2047 26.0156C67.0068 25.724 66.7568 25.4948 66.4547 25.3281C66.1578 25.1615 65.8089 25.0781 65.4078 25.0781C65.012 25.0781 64.663 25.1615 64.3609 25.3281C64.0641 25.4948 63.8141 25.724 63.6109 26.0156C63.413 26.3021 63.2646 26.6328 63.1656 27.0078C63.0667 27.3776 63.0172 27.7708 63.0172 28.1875ZM72.675 25.8516V32.5H71.2297V24.0469H72.5969L72.675 25.8516ZM72.3312 27.9531L71.7297 27.9297C71.7349 27.3516 71.8208 26.8177 71.9875 26.3281C72.1542 25.8333 72.3885 25.4036 72.6906 25.0391C72.9927 24.6745 73.3521 24.3932 73.7687 24.1953C74.1906 23.9922 74.6568 23.8906 75.1672 23.8906C75.5839 23.8906 75.9589 23.9479 76.2922 24.0625C76.6255 24.1719 76.9094 24.349 77.1437 24.5938C77.3833 24.8385 77.5656 25.1562 77.6906 25.5469C77.8156 25.9323 77.8781 26.4036 77.8781 26.9609V32.5H76.425V26.9453C76.425 26.5026 76.3599 26.1484 76.2297 25.8828C76.0995 25.612 75.9094 25.4167 75.6594 25.2969C75.4094 25.1719 75.1021 25.1094 74.7375 25.1094C74.3781 25.1094 74.05 25.1849 73.7531 25.3359C73.4615 25.487 73.2089 25.6953 72.9953 25.9609C72.787 26.2266 72.6229 26.5312 72.5031 26.875C72.3885 27.2135 72.3312 27.5729 72.3312 27.9531Z" fill="black" fill-opacity="0.6"/>
<path d="M167 25.5L172 30.5L177 25.5H167Z" fill="black"/>
<path d="M0.25 4C0.25 1.92893 1.92893 0.25 4 0.25H196C198.071 0.25 199.75 1.92893 199.75 4V54.75H0.25V4Z" stroke="#989898" stroke-width="0.5"/>
</svg>
