<svg width="19" height="18" viewBox="0 0 19 18" fill="none" xmlns="http://www.w3.org/2000/svg">
<g clip-path="url(#clip0_63_3100)">
<path d="M0.316406 2C0.316406 0.89543 1.21184 0 2.31641 0H16.3164C17.421 0 18.3164 0.895431 18.3164 2V16C18.3164 17.1046 17.421 18 16.3164 18H2.31641C1.21184 18 0.316406 17.1046 0.316406 16V2Z" fill="#6200EE"/>
<path d="M6.91271 11.9062L3.78521 8.77869L2.72021 9.83619L6.91271 14.0287L15.9127 5.02869L14.8552 3.97119L6.91271 11.9062Z" fill="white"/>
</g>
<path d="M1.31641 2C1.31641 1.44772 1.76412 1 2.31641 1H16.3164C16.8687 1 17.3164 1.44772 17.3164 2V16C17.3164 16.5523 16.8687 17 16.3164 17H2.31641C1.76412 17 1.31641 16.5523 1.31641 16V2Z" stroke="#6200EE" stroke-width="2"/>
<defs>
<clipPath id="clip0_63_3100">
<path d="M0.316406 2C0.316406 0.89543 1.21184 0 2.31641 0H16.3164C17.421 0 18.3164 0.895431 18.3164 2V16C18.3164 17.1046 17.421 18 16.3164 18H2.31641C1.21184 18 0.316406 17.1046 0.316406 16V2Z" fill="white"/>
</clipPath>
</defs>
</svg>
