<svg width="26" height="24" viewBox="0 0 26 24" fill="none" xmlns="http://www.w3.org/2000/svg">
<path d="M16.5 2.76626L24.8762 16.7175C26.08 18.7213 25.4888 21.3575 23.555 22.605C22.906 23.0252 22.1494 23.2492 21.3763 23.25H4.6225C2.34625 23.25 0.5 21.3375 0.5 18.9763C0.5 18.1775 0.71625 17.3963 1.1225 16.7175L9.5 2.76626C10.7025 0.762506 13.245 0.148756 15.1788 1.39626C15.7137 1.74126 16.1663 2.21001 16.5 2.76626ZM13.725 3.81501C13.572 3.71658 13.4006 3.65019 13.2212 3.61985C13.0418 3.58952 12.8581 3.59586 12.6812 3.63851C12.5043 3.68115 12.3379 3.7592 12.192 3.86796C12.0462 3.97671 11.9239 4.11391 11.8325 4.27126L3.45625 18.225C3.32019 18.4524 3.24846 18.7125 3.24875 18.9775C3.24875 19.765 3.86375 20.4025 4.62375 20.4025H21.375C21.6325 20.4025 21.8838 20.3275 22.1012 20.1875C22.4134 19.9801 22.6334 19.6604 22.7156 19.2948C22.7978 18.9292 22.7358 18.546 22.5425 18.225L14.1662 4.27126C14.0564 4.08753 13.9059 3.93145 13.7263 3.81501H13.725ZM13 18.25C12.6685 18.25 12.3505 18.1183 12.1161 17.8839C11.8817 17.6495 11.75 17.3315 11.75 17C11.75 16.6685 11.8817 16.3505 12.1161 16.1161C12.3505 15.8817 12.6685 15.75 13 15.75C13.3315 15.75 13.6495 15.8817 13.8839 16.1161C14.1183 16.3505 14.25 16.6685 14.25 17C14.25 17.3315 14.1183 17.6495 13.8839 17.8839C13.6495 18.1183 13.3315 18.25 13 18.25ZM13 7.00001C13.3315 7.00001 13.6495 7.1317 13.8839 7.36612C14.1183 7.60054 14.25 7.91849 14.25 8.25001V13.25C14.25 13.5815 14.1183 13.8995 13.8839 14.1339C13.6495 14.3683 13.3315 14.5 13 14.5C12.6685 14.5 12.3505 14.3683 12.1161 14.1339C11.8817 13.8995 11.75 13.5815 11.75 13.25V8.25001C11.75 7.91849 11.8817 7.60054 12.1161 7.36612C12.3505 7.1317 12.6685 7.00001 13 7.00001Z" fill="#FF008E"/>
</svg>
